<?xml version="1.0" encoding="UTF-8"?>
<svg id="Layer_1" data-name="Layer 1" xmlns="http://www.w3.org/2000/svg" viewBox="0 0 659 615">
  <g id="root">
    <path d="M494.28,59.34c2.02,2.93,3.79,5.76,5.33,8.28,2.93,4.88,5.04,8.79,6.25,11.05,16.9,31.85,22.55,67.39,20.93,102.54-.07,2.11-.21,4.22-.35,6.31-2.93,41.21-15.45,81.52-31.21,114.26-1.24,2.58-2.5,5.13-3.78,7.6-21.36,41.44-47.39,68.85-63.32,66.81-17.74-2.21-12.2-39.55-54.26-73.57-34.86-28.17-67.05-25.42-70.82-44.85-4.39-22.55,37.65-32.68,41.52-64.46,3.28-27-24.19-44.09-44.86-63.96-2.02-1.93-3.97-3.88-5.86-5.86-9.18-9.92-15.91-20.79-15.96-34.02-.16-43.45,71.74-97.75,136.83-86.43,39.48,6.72,65.44,35.67,79.54,56.28Z" style="fill: #0635da; fill-rule: evenodd; stroke: #0635da; stroke-miterlimit: 10; stroke-width: 2px;"/>
    <path d="M536.21,71.03c-13.39-5.76-27.49-9.7-41.93-11.72-14.75-2.07-29.67-2.69-44.54-1.86-5.97,.33-11.88,1.25-17.67,2.74-14.79,3.87-28.44,11.21-39.82,21.42-1.67,1.59-3.25,3.27-4.71,5.05h-.29c-10.06-.89-20.19-.21-30.04,2.02-23.12,5.19-43.28,15.54-63.25,34.81-8.8,8.61-16.89,17.92-24.2,27.83-.84,4.29-1.54,8.79-2.12,13.51,9.53-12.84,20.29-24.72,32.12-35.47,19.28-17.34,39.66-29.18,59.04-33.56,7.74-1.75,15.67-2.47,23.6-2.15h.26c-.86,1.51-1.62,3.07-2.28,4.67-4.1,9.61-4.64,20.39-1.61,32.23,3.79,15.07,11.99,20.27,18.12,21.97,8.7,2.45,18.95-.78,26.72-8.38,8.57-8.41,12.05-19.82,9.3-30.57-1.19-4.39-3.35-8.45-6.33-11.89-2.98-3.43-6.69-6.15-10.87-7.95-6.24-2.67-12.76-4.64-19.44-5.86,14.76-13.73,33.85-21.88,53.98-23.04,16.52-.99,33.11-.04,49.41,2.83,11.57,2.07,22.87,5.46,33.67,10.11,18.29,7.92,34.44,20.07,47.12,35.45,12.68,15.39,21.52,33.57,25.8,53.04v.13c7.09,35.47-4.71,74.83-30.08,100.3-20.06,20.14-48.55,32.43-80.98,35.16-3.13,.26-6.31,.43-9.53,.51-22.58,.53-54.55-3.65-78.58-26.65-25.88-24.76-30.1-62.54-19.14-83.35,7.79-14.87,29.71-15.75,47.33-16.48l5.78-.26c13.73-.69,60.64,7.49,85.34,12,.15-2.1,.28-4.2,.35-6.31-24.62-4.83-71.82-13.7-86.06-12.98-1.84,.1-3.76,.18-5.72,.25-19.44,.78-43.73,1.77-53.5,20.35-7.07,13.45-8.55,30.66-4.16,48.44,4.06,16.54,12.61,31.64,24.71,43.62,25.86,24.7,59.83,29.21,83.82,28.7,1.86,0,3.72-.12,5.56-.23,35.94-2.02,67.73-15.24,89.93-37.47,26.97-27.22,39.53-69.16,32.02-106.94-.32-1.95-5.27-29.59-27.54-56.66-13.34-16.22-30.35-29.02-49.62-37.36Zm-110.45,44.31c2.07,8.2-.64,16.98-7.32,23.54-3.1,3.13-6.96,5.39-11.2,6.56-2.76,.73-5.66,.73-8.42,0-6.15-1.73-10.66-7.51-13.03-16.77-2.58-10.25-2.28-19.2,1.08-27.28,1.03-2.48,2.31-4.84,3.84-7.05,7.57,1.01,14.96,3.05,21.96,6.08,3.16,1.34,5.99,3.37,8.25,5.96,2.27,2.58,3.92,5.65,4.84,8.96Z" style="fill: #e2f1ff; stroke: #1890ff; stroke-miterlimit: 10; stroke-width: 2px;"/>
    <path d="M115.64,595.21c-34.48-10.74-63.8-39.7-70.68-75.14-6.88-35.44,11.79-75.5,45.12-89.36,23.42-9.71,49.91-6.33,75.3-6.25,25.39,.07,53.71-5.03,68.63-25.58,12.87-17.73,12.27-42.48,24.7-60.54,12.14-17.58,35.65-25.49,56.66-21.58,21.01,3.91,39.16,18.43,50.54,36.48,11.38,18.05,16.38,39.68,17.64,60.98,3.98,68.69-32.96,138.2-92,173.4-59.04,35.2-137.74,34.44-196.18-1.85" style="fill: #a83bf9;"/>
    <path d="M115.64,595.21c-34.48-10.74-63.8-39.7-70.68-75.14-6.88-35.44,11.79-75.5,45.12-89.36,23.42-9.71,49.91-6.33,75.3-6.25,25.39,.07,53.71-5.03,68.63-25.58,12.87-17.73,12.27-42.48,24.7-60.54,12.14-17.58,35.65-25.49,56.66-21.58,21.01,3.91,39.16,18.43,50.54,36.48,11.38,18.05,16.38,39.68,17.64,60.98,3.98,68.69-32.96,138.2-92,173.4-59.04,35.2-137.74,34.44-196.18-1.85" style="fill: none; stroke: #a83bf9; stroke-miterlimit: 10; stroke-width: 2px;"/>
    <path d="M321.83,107.82c1.36,1.77,1.95,4.01,1.66,6.23-.29,2.21-1.46,4.22-3.23,5.58l-13.82,10.56-10.25-13.39,13.82-10.55c.88-.67,1.88-1.17,2.95-1.46,1.07-.29,2.18-.36,3.28-.21,1.1,.14,2.15,.51,3.11,1.06,.96,.56,1.8,1.3,2.47,2.18Z" style="fill: #e2f1ff; stroke: #1890ff; stroke-miterlimit: 10; stroke-width: 2px;"/>
    <path d="M241.04,159.18l-21.96,18.55c-.83,.7-1.9,1.04-2.98,.95-1.08-.09-2.08-.61-2.78-1.43-.69-.82-1.04-1.88-.96-2.94,.08-1.07,.57-2.06,1.38-2.77l21.96-18.53,5.34,6.18Z" style="fill: #e2f1ff; stroke: #1890ff; stroke-miterlimit: 10; stroke-width: 2px;"/>
    <path d="M263.65,184.49l-21.96,18.52c-.83,.7-1.9,1.04-2.97,.96-1.08-.09-2.08-.6-2.78-1.43-.35-.41-.61-.88-.77-1.39-.16-.51-.23-1.05-.18-1.58,.04-.53,.19-1.05,.44-1.53,.24-.48,.58-.9,.99-1.25l21.96-18.55,5.29,6.24Z" style="fill: #e2f1ff; stroke: #1890ff; stroke-miterlimit: 10; stroke-width: 2px;"/>
    <path d="M272.89,113.75l-.59-.7c-1.23-1.54-3-2.56-4.95-2.85-1.95-.29-3.94,.16-5.57,1.27-1.63,1.11-2.78,2.79-3.23,4.71-.44,1.92-.15,3.94,.83,5.65l-32.38,27.11,37.06,44.48,31.86-27.98c1.4,1.3,3.23,2.05,5.14,2.1,1.91,.05,3.77-.6,5.24-1.83,1.56-1.32,2.55-3.19,2.74-5.23,.2-2.03-.41-4.06-1.69-5.66,4.32-3.99,6.91-9.49,7.23-15.36,.32-5.87-1.65-11.63-5.5-16.06l-5.59-6.43c-3.75-4.31-8.99-7.04-14.67-7.63-5.68-.6-11.37,.98-15.93,4.41Z" style="fill: #e2f1ff; stroke: #1890ff; stroke-miterlimit: 10; stroke-width: 2px;"/>
    <path d="M267.1,150.45l-22.71,19.15,3.74,4.45,22.72-19.15-3.75-4.45Z" style="fill: none; stroke: #1890ff; stroke-miterlimit: 10; stroke-width: 2px;"/>
    <path d="M313.07,475.45c-2.9,5.67-6.42,11.01-10.47,15.92-8.42,10.25-16.75,17.3-25.34,21.58-1.39,10.11-4.35,19.94-8.78,29.14-14.35,29.97-37.29,51.99-80.64,71.2-4.39-.16-8.92-.48-13.64-.97,41.74-18.49,74.1-45.06,87.71-73.39,3.47-7.24,5.99-14.9,7.47-22.79-11.86,3.54-24.2,2.07-36.79-4.39-13.82-7.09-17.04-16.25-17.33-22.62-.43-9.02,5.01-18.28,14.17-24.16,10.1-6.47,21.96-7.32,31.86-2.2,4,2.14,7.46,5.15,10.13,8.82,2.67,3.67,4.48,7.89,5.28,12.35,1.22,6.68,1.68,13.49,1.38,20.28,16.69-11.31,28.91-28.09,34.57-47.45,8.78-30.62,10.76-58.88,6.06-83.98-3.6-19.62-11.81-38.09-23.95-53.91s-27.86-28.53-45.87-37.07h-.12c-32.94-14.87-73.92-12.19-104.43,6.83-26.46,16.49-46,44.99-55,80.23-5.59,21.97-8.71,54.03,8.29,82.62,18.31,30.76,54.17,43.38,76.91,37.37,16.22-4.28,21.96-25.45,26.68-42.48l1.55-5.58c5.14-18.24,8.07-101.37,8.07-101.68l6.06,1.32c-.18,1.27-1.87,83.63-7.19,102.32-.51,1.79-1.01,3.63-1.46,5.52-5.12,18.78-11.55,42.25-31.84,47.6-14.64,3.87-31.75,1.46-48.11-6.83-15.2-7.67-27.97-19.4-36.92-33.88-18.26-30.76-15.02-64.91-9.12-88.17,9.47-37.06,30.13-67.14,58.15-84.64,32.56-20.19,76.22-22.97,111.27-7.24,1.82,.76,27.63,11.72,48.99,39.55,12.79,16.66,21.43,36.14,25.2,56.81,4.92,26.24,2.78,55.58-6.22,87.35-1.62,5.75-3.81,11.32-6.53,16.64Zm-88.66,5.08c-1.35,2.52-2.01,5.35-1.92,8.2,.29,6.39,4.93,12.09,13.41,16.48,12.15,6.23,23.42,7.33,34.54,2.93,.73-7.62,.4-15.3-.98-22.82-.59-3.39-1.93-6.6-3.94-9.39-2.01-2.79-4.62-5.09-7.64-6.73-7.53-3.85-16.69-3.19-24.57,1.88-3.75,2.31-6.82,5.57-8.9,9.45Z" style="fill: #e2f1ff; stroke: #1890ff; stroke-miterlimit: 10; stroke-width: 2px;"/>
    <path d="M253.96,246.74l-67.49-9.58c-1.32-.19-2.66,.14-3.73,.94-1.07,.8-1.78,1.98-1.97,3.3-.19,1.32,.14,2.66,.94,3.73,.79,1.07,1.98,1.78,3.3,1.98l3.07,.42-2.55,27.63c-.27,2.93,.18,5.88,1.31,8.6,1.13,2.71,2.92,5.11,5.19,6.97l-1.54,16.66c-.25,2.77,.61,5.53,2.38,7.67,1.78,2.14,4.33,3.48,7.1,3.74l6.02,.54-1.46,16.3c-.13,1.1-.04,2.21,.26,3.28,.31,1.06,.82,2.05,1.52,2.92,.7,.86,1.56,1.57,2.53,2.09,.98,.52,2.05,.84,3.15,.94,1.1,.1,2.21-.03,3.26-.36,1.05-.34,2.03-.89,2.86-1.61,.84-.72,1.52-1.61,2.01-2.6,.49-.99,.77-2.07,.84-3.18l1.46-16.32,4.7,.42c2.77,.26,5.53-.6,7.67-2.37,2.14-1.78,3.49-4.33,3.75-7.1l1.55-16.96c2.45-1.46,4.51-3.48,6.02-5.89,1.51-2.42,2.42-5.16,2.65-8l2.36-24.39,1.46,.22c1.32,.2,2.66-.14,3.73-.94,1.07-.8,1.78-1.98,1.97-3.3s-.14-2.66-.94-3.73c-.79-1.07-1.98-1.78-3.3-1.97l-.1-.03Z" style="fill: #e2f1ff; stroke: #1890ff; stroke-miterlimit: 10; stroke-width: 2px;"/>
    <path d="M295.92,165.39l-36.53-43.61" style="fill: none; stroke: #1890ff; stroke-miterlimit: 10; stroke-width: 2px;"/>
    <path d="M307.34,154.75l-34.46-41" style="fill: none; stroke: #1890ff; stroke-miterlimit: 10; stroke-width: 2px;"/>
    <path d="M382.27,94.34c.76-1.36,1.65-2.83,2.71-4.39,1.05-1.57,2.04-2.75,2.93-3.9" style="fill: none; stroke: #1890ff; stroke-miterlimit: 10; stroke-width: 2px;"/>
    <path d="M390.63,94.47c.76-1.11,1.67-2.33,2.72-3.59,1.05-1.26,2.11-2.31,3.09-3.25" style="fill: none; stroke: #1890ff; stroke-miterlimit: 10; stroke-width: 2px;"/>
    <path d="M206.04,319.32l16.47,1.51" style="fill: none; stroke: #1890ff; stroke-miterlimit: 10; stroke-width: 2px;"/>
    <path d="M192.08,290.71l48.11,4.1" style="fill: none; stroke: #1890ff; stroke-miterlimit: 10; stroke-width: 2px;"/>
    <path d="M188.12,247.53l63,8.89" style="fill: none; stroke: #1890ff; stroke-miterlimit: 10; stroke-width: 2px;"/>
    <path d="M268.09,516.47c1.46-.42,3.18-.97,4.9-1.64,1.84-.71,3.63-1.54,5.37-2.46" style="fill: none; stroke: #1890ff; stroke-miterlimit: 10; stroke-width: 2px;"/>
    <path d="M269.36,508.46c1.69-.52,3.33-1.18,4.9-1.98,1.61-.83,3.14-1.82,4.57-2.93" style="fill: none; stroke: #1890ff; stroke-miterlimit: 10; stroke-width: 2px;"/>
  </g>
</svg>