<svg viewBox="0 0 24 24" fill="none" xmlns="http://www.w3.org/2000/svg">
  <g id="root">
    <path d="M20.4376 11.5234H6.72435L14.9322 4.39844C15.0634 4.28359 14.9837 4.07031 14.8103 4.07031H12.7361C12.6447 4.07031 12.5579 4.10312 12.49 4.16172L3.63294 11.8469C3.55182 11.9172 3.48676 12.0041 3.44218 12.1018C3.39759 12.1994 3.37451 12.3055 3.37451 12.4129C3.37451 12.5202 3.39759 12.6263 3.44218 12.724C3.48676 12.8217 3.55182 12.9086 3.63294 12.9789L12.5415 20.7109C12.5767 20.7414 12.6189 20.7578 12.6634 20.7578H14.8079C14.9814 20.7578 15.0611 20.5422 14.9298 20.4297L6.72435 13.3047H20.4376C20.5408 13.3047 20.6251 13.2203 20.6251 13.1172V11.7109C20.6251 11.6078 20.5408 11.5234 20.4376 11.5234Z" fill="rgba(0, 0, 0, 1)"/>
  </g>
</svg>


