<?xml version="1.0" encoding="UTF-8"?>
<svg id="Layer_1" data-name="Layer 1" xmlns="http://www.w3.org/2000/svg" viewBox="0 0 402 396">
  <g id="root">
    <path d="M176.05,385.88c37.35-2.14,75.1,2.69,109.22-12.65,37.49-16.85,72.18-42.1,92.32-77.94,20.99-37.35,27.56-81.75,21.27-124.13-6.28-42.27-26.88-81.33-56.38-112.22C313.83,28.94,277.08,1.52,235.63,.24c-39.51-1.22-66.45,39.3-103.82,52.2-34.79,12.01-83.54-8.67-106.24,20.31-22.99,29.34,8.83,72.44,4.57,109.47C26.05,217.65-3.54,247.7,1.37,283.02c5.52,39.76,22.52,82.88,57.1,103.24,34.48,20.3,77.65,1.91,117.59-.38Z" style="fill: #ffc648; fill-rule: evenodd;"/>
  </g>
</svg>