<?xml version="1.0" encoding="UTF-8"?>
<svg id="Layer_1" data-name="Layer 1" xmlns="http://www.w3.org/2000/svg" viewBox="0 0 506 501">
  <g id="root">
    <path d="M221.49,12.45c47.2,2.72,94.92-3.4,138.05,16.02,47.39,21.35,91.23,53.33,116.7,98.73,26.54,47.31,34.84,103.56,26.88,157.24-7.94,53.54-33.97,103.02-71.26,142.16-36.21,38-82.66,72.74-135.06,74.36-49.94,1.54-83.99-49.78-131.23-66.12-43.97-15.21-105.59,10.98-134.29-25.73-29.05-37.17,11.16-91.76,5.77-138.68C31.89,225.56-5.51,187.49,.69,142.75,7.67,92.38,29.15,37.76,72.86,11.97c43.58-25.72,98.14-2.43,148.63,.48Z" style="fill: #a83bf9; fill-rule: evenodd;"/>
  </g>
</svg>