<svg width="102" height="102" viewBox="0 0 102 102" fill="none" xmlns="http://www.w3.org/2000/svg">
<circle cx="61.6263" cy="53.1253" r="34.7083" fill="url(#paint0_linear_1233_7254)" fill-opacity="0.3"/>
<path d="M83.8717 48.1667C83.8717 67.1249 68.8163 82.4544 50.2923 82.4544C31.7683 82.4544 16.7129 67.1249 16.7129 48.1667C16.7129 29.2085 31.7683 13.8789 50.2923 13.8789C68.8163 13.8789 83.8717 29.2085 83.8717 48.1667Z" stroke="white" stroke-width="2.25781"/>
<path d="M75.0846 48.167C75.0846 51.3297 74.4617 54.4614 73.2514 57.3833C72.0411 60.3052 70.2671 62.9601 68.0308 65.1965C65.7945 67.4328 63.1395 69.2068 60.2176 70.4171C57.2957 71.6274 54.164 72.2503 51.0013 72.2503C47.8386 72.2503 44.7069 71.6274 41.785 70.4171C38.8631 69.2068 36.2082 67.4328 33.9718 65.1965C31.7355 62.9601 29.9615 60.3052 28.7512 57.3833C27.5409 54.4614 26.918 51.3297 26.918 48.167" stroke="white" stroke-width="2.25781" stroke-linecap="round"/>
<defs>
<linearGradient id="paint0_linear_1233_7254" x1="61.6263" y1="18.417" x2="61.6263" y2="87.8337" gradientUnits="userSpaceOnUse">
<stop stop-color="white"/>
<stop offset="1" stop-color="white" stop-opacity="0"/>
</linearGradient>
</defs>
</svg>
