<svg width="2043" height="448" viewBox="0 0 2043 448" fill="none" xmlns="http://www.w3.org/2000/svg">
<path d="M0 388.563H1243.52C1251.74 388.563 1258.39 395.232 1258.39 403.46V409.474C1258.39 422.604 1269.02 433.252 1282.13 433.252C1295.24 433.252 1305.87 422.607 1305.87 409.474V385.411C1305.87 371.963 1316.75 361.063 1330.17 361.063C1343.6 361.063 1354.48 371.963 1354.48 385.411V422.937C1354.48 436.228 1365.23 447 1378.5 447C1391.77 447 1402.52 436.228 1402.52 422.937V359.057C1402.52 344.661 1414.17 332.988 1428.54 332.988C1442.91 332.988 1454.57 344.661 1454.57 359.057V425.803C1454.57 437.509 1464.04 447 1475.73 447C1487.41 447 1496.89 437.509 1496.89 425.803V420.503C1496.89 410.444 1505.01 402.282 1515.05 402.241C1525.14 402.201 1533.35 410.389 1533.35 420.503V424.657C1533.35 436.996 1543.34 447 1555.65 447C1567.97 447 1577.96 436.996 1577.96 424.657V317.951V213.597C1577.96 201.533 1587.72 191.756 1599.76 191.756C1611.8 191.756 1621.56 201.536 1621.56 213.597V228.007C1621.56 237.817 1629.5 245.767 1639.29 245.767C1649.09 245.767 1657.02 237.817 1657.02 228.007V15.8975C1657.02 7.66911 1663.68 1 1671.89 1H2043" stroke="#C4C4C4" stroke-width="2" stroke-miterlimit="10"/>
</svg>
