<?xml version="1.0" encoding="UTF-8"?>
<svg id="Layer_1" data-name="Layer 1" xmlns="http://www.w3.org/2000/svg" viewBox="0 0 98 70">
  <g id="root">
    <g>
      <path d="m28.42,21.61l-8.18,17.78-8.42-17.78h-6.82l12.98,25.07h4.52l12.99-25.07h-7.07Z" style="fill: #ffffff;"/>
      <path d="m66.97,14h-5.67v5.95h5.67v-5.95Z" style="fill: #ffffff;"/>
      <path d="m45.85,26.06c3.82,0,6.81,2.52,7.21,5.7h-13.97c.22-1.62,1.04-3.09,2.29-4.15,1.25-1.05,2.84-1.61,4.47-1.55Zm-.1,21.76c3,.06,5.93-.86,8.36-2.62,2.43-1.76,4.21-4.26,5.09-7.13h-6.43c-1.07,2.98-3.32,4.95-7.43,4.95-.87-.02-1.72-.21-2.51-.56-.79-.35-1.51-.86-2.1-1.48-.6-.63-1.06-1.37-1.38-2.17-.31-.81-.46-1.67-.44-2.54,0-.07,0-.14,0-.21h20.71v-1.19c0-9.01-7.18-13.55-13.86-13.55-3.52-.02-6.89,1.36-9.4,3.83-2.5,2.47-3.92,5.83-3.95,9.35,0,7.71,5.3,13.33,13.33,13.33h0Z" style="fill: #ffffff;"/>
      <path d="m66.81,21.87h-5.7v25.35c.04.88-.27,1.74-.86,2.4-.59.65-1.42,1.05-2.3,1.1-.13,0-.26,0-.39,0h-1.5v5.25h1.45c1.73.11,3.47-.19,5.06-.87,1.44-.74,2.58-1.94,3.24-3.41.69-1.62,1.03-3.37,1-5.13v-24.68Z" style="fill: #ffffff;"/>
      <path d="m88.17,36.12c0,5.45-4.37,6.81-7.82,6.75-3.44-.06-5.25-1.65-5.25-3.5s1.84-2.29,3.5-2.44c2.82-.35,7.42-.33,9.57-1.75v.94Zm-5.51-15.12c-4.55,0-7.17.62-9.35,2.09-.97.68-1.77,1.57-2.33,2.62-.56,1.04-.88,2.2-.92,3.38v.94h6.12v-.14c0-2.85,3.1-4.31,6.54-4.31,3.23,0,5.25,1.3,5.25,3.5,0,.35.11,2.29-3.93,2.54l-7.73.45c-5.14.13-7.58,3.07-7.58,7.16,0,5.11,4.09,8.55,11.22,8.55,2.91.05,5.76-.84,8.11-2.54v1.47h5.73v-17.91c.03-3.86-2.89-7.79-11.13-7.79h0Z" style="fill: #ffffff;"/>
    </g>
  </g>
</svg>