<?xml version="1.0" encoding="UTF-8"?>
<svg id="Layer_1" data-name="Layer 1" xmlns="http://www.w3.org/2000/svg" viewBox="0 0 92 70">
  <g id="root">
    <path d="m86.52,44.23c-3.9,0-5.69-2.11-5.69-6V14h-12.11v18.01c-1.37-2.98-3.57-5.5-6.33-7.27-2.76-1.77-5.97-2.71-9.25-2.71s-6.49.94-9.25,2.71c-2.76,1.77-4.96,4.29-6.33,7.27v-9.58h-11.9v16.85c0,3.05-1.69,5.16-4.32,5.16s-4.32-2.11-4.32-5.16v-16.85H5v17.06c0,10.43,6.42,16.96,16.32,16.96,8,0,13.69-4.42,15.48-11.59,1.16,3.37,3.34,6.3,6.23,8.38,2.89,2.08,6.36,3.22,9.93,3.26s7.05-1.04,9.99-3.06c2.93-2.03,5.17-4.91,6.4-8.26,1.79,7.69,7.58,11.06,15.38,11.06h3.05v-12.01h-1.26Zm-33.39.21c-1.02,0-2.02-.3-2.87-.87-.85-.57-1.51-1.37-1.9-2.32-.39-.94-.49-1.98-.29-2.98s.69-1.92,1.41-2.64c.72-.72,1.64-1.21,2.64-1.41,1-.2,2.04-.1,2.98.29.94.39,1.75,1.05,2.32,1.9.57.85.87,1.85.87,2.87,0,.68-.13,1.35-.39,1.97-.26.63-.64,1.2-1.12,1.67-.48.48-1.05.86-1.67,1.12-.63.26-1.3.39-1.97.39Z" style="fill: #fff;"/>
  </g>
</svg>