<?xml version="1.0" encoding="UTF-8"?>
<svg id="Layer_1" data-name="Layer 1" xmlns="http://www.w3.org/2000/svg" viewBox="0 0 101 70">
  <g id="root">
    <path d="m22.06,20c-2.78,0-5.29.51-7.52,1.53-2.23,1.02-4.13,2.34-5.68,3.98-1.56,1.64-2.76,3.49-3.59,5.57-.84,2.07-1.26,4.18-1.26,6.33,0,1.92.34,3.66,1.01,5.21.67,1.55,1.62,2.88,2.83,3.98,1.21,1.1,2.65,1.94,4.32,2.53,1.67.59,3.51.88,5.52.88,2.75,0,5.11-.5,7.07-1.51,1.96-1,3.64-2.3,5.04-3.89l-5.41-4.78c-.94.94-1.89,1.66-2.85,2.16-.97.51-2.08.76-3.35.76-1.68,0-3.06-.53-4.15-1.59-1.09-1.06-1.63-2.51-1.63-4.35,0-1.26.23-2.46.68-3.61.45-1.14,1.07-2.15,1.84-3.03.77-.88,1.68-1.58,2.73-2.1,1.05-.52,2.18-.78,3.39-.78,1.43,0,2.62.32,3.55.97.94.65,1.69,1.56,2.27,2.74l6.94-3.71c-.88-2.23-2.31-4-4.3-5.32-1.98-1.32-4.46-1.98-7.44-1.98Zm17.15.58l-7.77,28.85h15c2.23,0,4.17-.23,5.83-.68,1.65-.45,3.03-1.07,4.11-1.85,1.09-.78,1.89-1.71,2.42-2.78.52-1.07.78-2.22.78-3.46,0-1.48-.41-2.7-1.22-3.65-.81-.95-1.87-1.66-3.16-2.12,2.04-.49,3.63-1.39,4.77-2.68,1.14-1.29,1.71-2.86,1.71-4.7,0-.91-.17-1.78-.52-2.62-.34-.84-.92-1.58-1.74-2.23-.81-.65-1.89-1.15-3.22-1.52-1.34-.37-3-.56-4.98-.56h-12.03Zm30.16,0l-7.77,28.85h7.98l4.46-16.61,7.81,16.61h7.03l7.77-28.85h-7.98l-4.34,16.03-7.48-16.03h-7.48Zm-24.01,6.17h5c2.99,0,3.4,1.5,3.4,2.42,0,.75-.17,3.08-4.39,3.08h-5.42l1.41-5.5Zm-2.75,10.27h5.54c2.37,0,3.41,1.31,3.41,2.81,0,.9-.56,3.5-4.53,3.5h-6.08l1.66-6.31Z" style="fill: #ffffff;"/>
  </g>
</svg>