<?xml version="1.0" encoding="UTF-8"?>
<svg id="Layer_1" data-name="Layer 1" xmlns="http://www.w3.org/2000/svg" viewBox="0 0 54 70">
  <g id="root">
    <path d="m36.32,18.21l8.52-5.07c.93-.46,2.01.23,2.01,1.48v30.85c0,.58-.63,1.21-1.4,1.21h-3.92c-.37,0-.73-.15-.99-.42s-.41-.62-.41-1v-22.25l-2.62,1.56c-.93.46-1.99-.25-1.99-1.3v-3.8c0-.54.31-1.04.79-1.27h0Zm-17.2,22.46c-3.48,0-6.4-2.79-6.4-6.87s2.93-6.87,6.4-6.87,6.35,2.74,6.35,6.87-2.87,6.87-6.35,6.87Zm7.89-19.78c-.83,0-1.32.5-1.32,1.34v1.45c-1.49-1.85-4.25-3.24-7.01-3.24-6.74,0-12.53,5.81-12.53,13.41s5.46,12.85,12.37,12.85c1.28,0,2.55-.25,3.73-.76,1.18-.51,2.24-1.26,3.11-2.2-.05,5.31-2.81,7.71-7.56,7.71-2.54,0-4.91-.78-7.67-2.57-.72-.5-1.55-.34-1.93.45l-1.66,3.3c-.39.78-.28,1.51.5,2.01,3.42,2.24,7.46,3.35,10.93,3.35,9.11,0,14.13-4.97,14.13-16.43v-19.33c0-.84-.5-1.34-1.32-1.34h-3.75Z" style="fill: #ffffff;"/>
  </g>
</svg>