<?xml version="1.0" encoding="UTF-8"?>
<svg id="Layer_1" data-name="Layer 1" xmlns="http://www.w3.org/2000/svg" viewBox="0 0 123 72">
  <g id="root">
    <path d="m10.14,39.25l.1-9.14L.05,9.93c-.12-.22,0-.39.27-.39h8.34c.17,0,.34.05.44.27l5.36,12.58,5.46-12.58c.1-.22.27-.27.44-.27h7.63c.27,0,.39.17.27.39l-10.14,20.13.12,9.19c0,.27-.12.34-.34.34h-7.43c-.22,0-.34-.1-.34-.34h.02Z" style="fill: #ffffff;"/>
    <path d="m30.31,60.08v-7.46l-.1-42.85c0-.27.12-.34.34-.34h7.6c.22,0,.34.1.34.34l-.12,42.63v7.63c0,3.83,1.54,5.63,4.75,5.63,3.61,0,5.29-1.8,5.29-5.63v-7.46l-.1-52.23c0-.27.12-.34.34-.34h6.78c.22,0,.34.1.34.34l-.1,52.28v7.46c0,7.68-4.22,11.8-12.58,11.8s-12.82-4.12-12.82-11.8h.02Z" style="fill: #8dc63f;"/>
    <path d="m84.32,38.83c.12.22,0,.44-.27.44h-8.51c-.17,0-.29-.1-.39-.22l-4.41-7.34-2.02-3h-3.1l.05,10.21c0,.27-.12.34-.34.34h-7.38c-.22,0-.34-.1-.34-.34l.1-14.45-.1-14.89c0-.27.12-.34.34-.34h13.04c7.99,0,12.45,3.27,12.45,9.75,0,4.24-2.27,7.34-6.39,8.8l7.26,11.07v-.02Zm-18.67-23.98l-.05,8.19h5.85c2.14,0,4.29-1.07,4.29-3.9s-1.63-4.29-4.51-4.29h-5.58Z" style="fill: #ffffff;"/>
    <path d="m2.88,71.17c-.22,0-.34-.1-.34-.34l.17-14.45-.17-14.89c0-.27.12-.34.34-.34h13.7c6.21,0,10.89,2.1,10.89,7.51,0,3.56-1.75,5.48-4.97,6.6,3.95.85,5.97,3.51,5.97,7.09,0,6.21-5.85,8.85-11.58,8.85H2.88v-.02Zm7.73-24.49l-.1,6.26h5.75c2.14,0,3.44-1.12,3.44-3.14s-1.41-3.14-3.44-3.14h-5.65v.02Zm-.1,11.63l.1,7.34h5.65c2.58,0,4.07-.95,4.07-3.78,0-2.61-1.54-3.56-4.07-3.56h-5.75Z" style="fill: #ffffff;"/>
    <path d="m57.1,61.54c-.05-.22.1-.34.29-.34h7.56c.22,0,.29.12.34.29.46,3,2.14,4.58,6.04,4.58,3.31,0,5.09-.9,5.09-3.1,0-5.75-18.79-.95-18.79-13.14,0-5.75,4.41-9.48,12.58-9.48,7.12,0,12.31,2.66,13.36,9.19.05.27-.12.39-.34.39h-7.51c-.22,0-.34-.12-.39-.34-.27-2.14-2.14-3.34-5.24-3.34-2.58,0-4.46.8-4.46,2.78,0,5.41,18.91.85,18.91,12.84,0,6.43-4.97,10.04-13.36,10.04s-13.53-3.51-14.11-10.38h.02Z" style="fill: #ffffff;"/>
    <path d="m103.38,70.81c0,.27-.12.34-.34.34h-6.56c-.22,0-.34-.1-.34-.34l.1-14.55-.1-14.79c0-.27.12-.34.34-.34h8.51c.17,0,.29.1.39.27l10.6,18.72-.22-3.95v-14.67c0-.22.12-.34.34-.34h6.56c.22,0,.34.1.34.34l-.1,14.79.1,14.55c0,.27-.12.34-.34.34h-8.75c-.17,0-.29-.1-.39-.27l-10.31-18.55.22,4.75-.05,13.7Z" style="fill: #ffffff;"/>
    <path d="m94.17,38.99c0,.21-.12.27-.34.27h-7.27c-.22,0-.34-.08-.34-.27l.12-11.32-.12-8.38c0-.21.12-.27.34-.27h7.27c.22,0,.34.08.34.27l-.12,8.38.12,11.32Z" style="fill: #ffffff;"/>
    <path d="m94.2,70.86c0,.27-.12.34-.34.34h-7.29c-.22,0-.34-.1-.34-.34l.12-14.57-.12-14.82c0-.27.12-.34.34-.34h7.29c.22,0,.34.1.34.34l-.12,14.82.12,14.57Z" style="fill: #ffffff;"/>
    <rect x="86.27" y="9.68" width="7.87" height="7.47" rx=".58" ry=".58" style="fill: #ffffff;"/>
  </g>
</svg>