<?xml version="1.0" encoding="UTF-8"?>
<svg id="Layer_1" data-name="Layer 1" xmlns="http://www.w3.org/2000/svg" viewBox="0 0 182 70">
  <g id="root">
    <path d="m15.77,27.35c0,5.75,2.06,8.4,6.44,8.4,3.82,0,6.77-2.39,6.77-8.21s-2.09-8.38-6.47-8.38c-3.82,0-6.75,2.33-6.75,8.19h0Zm9.2.22c0,6.34-1.34,7.24-2.7,7.24s-2.51-1.03-2.51-7.51,1.34-7.18,2.68-7.18,2.54.98,2.54,7.45Zm4.8,7.89h9.87v-4.85h-.78l-1.37,3.77h-2.51v-13.85l1.45-.33v-.73h-6.55v.73l1.34.33v13.88l-1.45.33v.73Zm11.18-15.99v.73l1.34.35v13.85l-1.34.33v.73h6.3v-.73l-1.2-.33v-6.29h3.62v6.29l-1.12.33v.73h6.22v-.73l-1.34-.33v-13.88l1.23-.33v-.73h-6.11v.73l1.12.33v6.51h-3.62v-6.51l1.2-.33v-.73h-6.3Zm14.89,15.99h4.21v-.73l-1.7-.33.92-3.82h3.51l1.31,3.82-1.48.33v.73h6.63v-.73l-1.23-.33-4.66-14.96h-2.34l-3.99,14.96-1.2.33v.73Zm3.74-5.99l1.28-5.04,1.59,5.04h-2.87Zm26.07-1.76c0-6.29-2.45-8.24-6.52-8.24h-6.36v.73l1.31.33v13.88l-1.31.33v.73h6.64c3.26,0,6.24-2.09,6.24-7.75h0Zm-6.58,6.67h-1.06v-13.82h.95c1.87,0,2.9,1.06,2.9,6.99s-.89,6.83-2.79,6.83ZM3.06,17.24v.84l1.7.35v15.83l-1.76.35v.84h8.14v-.84l-2.23-.35v-7.32h2.4l.59,2.41h.89v-5.88h-.89l-.59,2.22h-2.4v-7.24h3.07l1.56,4.15h.95v-5.37H3.06Z" style="fill: #fff;"/>
    <path d="m93.7,34.37h-3.04v-6.37h2.04l.5,2.14h.78v-5.18h-.78l-.5,1.95h-2.04v-6.32h2.54l1.34,3.52h.86v-4.61h-10.01v.7l1.51.33v13.85l-1.53.33v.73h10.54v-4.66h-.84l-1.37,3.58h0Zm13.94-17.37c-3.35,0-5.99,2.09-6.02,5.37-.03,5.39,7.05,5.45,7.05,9.76,0,1.17-.92,2.22-2.37,2.22-.98,0-2.04-.14-2.82-.6l-.84-3.52h-.97v4.93c.97.38,2.42.6,4.07.6,3.82,0,6.38-2.71,6.38-5.99,0-5.85-6.94-5.48-6.94-9.46,0-1.08.86-1.92,2.45-1.92.7,0,1.17.08,1.87.22l.92,3.63h.89v-4.93c-1.14-.22-2.4-.3-3.68-.3Zm15.81,9.81h-.7v-8.29h.75c1.42,0,1.95.76,1.95,4.12s-.72,4.17-2.01,4.17Zm1.03,1.25c3.74,0,5.35-2.14,5.35-5.39,0-4.2-2.06-5.39-5.13-5.39h-7.81v.84l1.7.35v15.8l-1.76.35v.84h8.03v-.84l-2.12-.35v-6.21h1.73Zm8.06,1.44l1.28-5.07,1.59,5.07h-2.87Zm-3.9,5.96h4.38v-.73l-1.67-.33.92-3.82h3.49l1.28,3.82-1.48.33v.73h6.8v-.73l-1.39-.33-4.63-14.93h-2.34l-4.01,14.93-1.34.33v.73Zm13.02-15.94v.7l1.34.33v10.3c0,3.69,1.23,5.1,4.88,5.1,3.29.03,4.85-1.3,4.85-4.39v-11l1.25-.33v-.7h-3.79v.7l1.39.33v10.79c0,2.25-.64,3.47-2.79,3.47-1.53,0-2.04-.95-2.04-2.98v-11.28l1.45-.33v-.7h-6.55Zm13.55,15.94h9.7v-4.85h-.78l-1.34,3.77h-2.4v-13.82l1.45-.33v-.7h-6.55v.7l1.37.33v13.85l-1.45.33v.73h0Zm10.85-8.1c0,5.75,2.06,8.4,6.44,8.4,3.79,0,6.72-2.39,6.72-8.21s-2.09-8.35-6.47-8.35c-3.79,0-6.69,2.33-6.69,8.16Zm9.17.24c0,6.32-1.37,7.21-2.7,7.21s-2.48-1.03-2.48-7.48,1.34-7.18,2.68-7.18,2.51.98,2.51,7.45h0Zm-61.75,4.88c.89,0,1.62.79,1.62,1.73s-.78,1.73-1.67,1.73c-.84,0-1.62-.79-1.62-1.73s.84-1.73,1.67-1.73Z" style="fill: #fff;"/>
    <path d="m75.95,41.63l1.28,3.93h4.13l-3.34,2.43,1.28,3.93-3.34-2.43-3.34,2.43,1.28-3.93-3.34-2.43h4.13l1.28-3.93Z" style="fill: #eb1a25;"/>
    <path d="m91.1,41.63l1.28,3.93h4.13l-3.34,2.43,1.28,3.93-3.34-2.43-3.34,2.43,1.28-3.93-3.34-2.43h4.13l1.28-3.93Z" style="fill: #03a8ed;"/>
    <path d="m106.26,41.63l1.28,3.93h4.13l-3.34,2.43,1.28,3.93-3.34-2.43-3.34,2.43,1.28-3.93-3.34-2.43h4.13l1.28-3.93Z" style="fill: #fff;"/>
  </g>
</svg>