<?xml version="1.0" encoding="UTF-8"?>
<svg id="Layer_1" data-name="Layer 1" xmlns="http://www.w3.org/2000/svg" viewBox="0 0 118 70">
  <g id="root">
    <path d="m99.83,25.07h.82c1.42,0,3.19.09,3.19,1.96s-1.64,2.18-3.16,2.18h-.85v-4.14Zm-8.46,17.36h8.47v-7.65h.16l3.79,7.65h9.99l-5.18-7.74c-.47-.7-1.01-1.08-1.45-1.42v-.19c3.22-1.07,4.62-2.59,4.62-6.19,0-6.01-4.55-8.28-9.92-8.28h-10.46v23.83Z" style="fill: #ffffff; fill-rule: evenodd;"/>
    <path d="m49.27,18.59v14.1c0,6.78-4.14,9.95-10.53,10.11-.17,0-.34,0-.49,0-6.41-.14-10.57-3.31-10.57-10.11v-14.1h8.66v13.27c0,1.73.05,3.27,1.91,3.48.14.02.35.01.5,0,1.81-.23,1.87-1.76,1.87-3.48v-13.27h8.66Z" style="fill: #ffffff; fill-rule: evenodd;"/>
    <path d="m51.99,42.42h8.34v-7.17h3c4.84,0,7.87-3.03,7.87-7.9,0-5.91-4.11-8.75-9.67-8.75h-9.54v23.83Zm8.34-17.32h.82c1.42,0,3.19.09,3.19,1.96s-1.64,2.18-3.16,2.18h-.85v-4.14Z" style="fill: #ffffff; fill-rule: evenodd;"/>
    <path d="m43.53,49.25h-.27v-1.64h.26c.46,0,1.02.04,1.02.78s-.53.87-1.01.87Zm2.04,1.65c-.12-.23-.27-.35-.38-.46v-.06c.85-.35,1.22-.85,1.22-2.03,0-1.96-1.2-2.71-2.62-2.71h-2.76v7.79h2.23v-2.5h.04l1,2.5h2.64l-1.37-2.53Z" style="fill: #ffffff; fill-rule: evenodd;"/>
    <path d="m6.55,34.13s5.16,2.25,7.48,2c.93-.1,1.93-.58,1.93-1.76s-1.24-1.28-2.1-1.45l-1.9-.34c-3.69-.66-6.8-2.83-6.8-6.9,0-6.17,5.62-9.63,11.28-9.63,2.97,0,5.69.72,8.25,2.28l-2.55,5.73c-2.23-1.06-3.53-1.52-5.55-1.71-1.09-.1-2.13.72-2.13,1.79,0,.97,1.33,1.37,2.05,1.54l2.14.48c4,.9,6.9,3.04,6.9,7.45,0,6.21-5.66,9.28-11.28,9.28-3.28,0-7.07-.9-10.01-2.38l2.28-6.38Z" style="fill: #ffffff; fill-rule: evenodd;"/>
    <path d="m81.64,36.19v-3.35h6.67v-4.63h-6.67v-3.27h7.3v-6.3h-12.69c-1.74.01-3.17,1.33-3.34,3.03v17.79c.18,1.69,1.6,3.01,3.33,3.03h12.95v-6.3h-7.56Z" style="fill: #ffffff; fill-rule: evenodd;"/>
    <path d="m70.97,50.93s1.24.67,1.8.6c.22-.03.46-.17.46-.52s-.3-.38-.51-.43l-.46-.1c-.89-.2-1.64-.85-1.64-2.06,0-1.84,1.35-2.87,2.72-2.87.72,0,1.37.22,1.99.68l-.61,1.71c-.54-.32-.85-.45-1.34-.51-.26-.03-.51.21-.51.53,0,.29.32.41.49.46l.51.14c.96.27,1.66.91,1.66,2.22,0,1.85-1.36,2.77-2.72,2.77-.79,0-1.7-.27-2.41-.71l.55-1.91Z" style="fill: #ffffff; fill-rule: evenodd;"/>
    <path d="m61.37,50.93s1.24.67,1.8.6c.22-.03.47-.17.47-.52s-.3-.38-.51-.43l-.46-.1c-.89-.2-1.64-.85-1.64-2.06,0-1.84,1.35-2.87,2.72-2.87.71,0,1.37.22,1.99.68l-.61,1.71c-.54-.32-.85-.45-1.34-.51-.26-.03-.51.21-.51.53,0,.29.32.41.5.46l.51.14c.97.27,1.66.91,1.66,2.22,0,1.85-1.36,2.77-2.72,2.77-.79,0-1.7-.27-2.41-.71l.55-1.91Z" style="fill: #ffffff; fill-rule: evenodd;"/>
    <path d="m4.79,53.42h2.28v-7.77h-2.28v7.77Z" style="fill: #ffffff; fill-rule: evenodd;"/>
    <path d="m22.26,45.66h4.79v2.52l-1.25-.07v5.31h-2.28v-5.31l-1.25.07v-2.52Z" style="fill: #ffffff; fill-rule: evenodd;"/>
    <path d="m82.36,50.86l.57-3.27h.11c.06.46.11.92.21,1.38l.37,1.89h-1.26Zm1.87-5.18h-2.51l-2.17,7.75h2.41l.18-.97h1.72l.21.97h2.41l-2.23-7.75Z" style="fill: #ffffff; fill-rule: evenodd;"/>
    <path d="m90.14,45.66h2.08l1.95,4.3h.06c-.09-.65-.18-1.32-.18-1.98v-2.33h2.07v7.77h-2.07l-1.91-4.08h-.06c.07.54.13,1.04.13,1.56v2.52h-2.08v-7.77Z" style="fill: #ffffff; fill-rule: evenodd;"/>
    <path d="m11.87,45.66h2.08l1.95,4.3h.06c-.09-.65-.18-1.32-.18-1.98v-2.33h2.08v7.77h-2.08l-1.91-4.08h-.06c.07.54.13,1.04.13,1.56v2.52h-2.08v-7.77Z" style="fill: #ffffff; fill-rule: evenodd;"/>
    <path d="m100.85,45.66h4.79v2.52l-1.26-.07v5.31h-2.28v-5.31l-1.25.07v-2.52Z" style="fill: #ffffff; fill-rule: evenodd;"/>
    <path d="m111.89,51.42v-1.09h1.79v-1.51h-1.79v-1.07h1.96v-2.06h-3.4c-.47,0-.85.44-.89.99v5.81c.05.55.43.98.89.99h3.47v-2.06h-2.02Z" style="fill: #ffffff; fill-rule: evenodd;"/>
    <path d="m53.9,51.42v-1.09h1.79v-1.51h-1.79v-1.07h1.96v-2.06h-3.4c-.47,0-.85.44-.9.99v5.81c.05.55.43.98.89.99h3.47v-2.06h-2.02Z" style="fill: #ffffff; fill-rule: evenodd;"/>
    <path d="m33.83,51.42v-1.09h1.79v-1.51h-1.79v-1.07h1.96v-2.06h-3.4c-.47,0-.85.44-.9.99v5.81c.05.55.43.98.89.99h3.47v-2.06h-2.02Z" style="fill: #ffffff; fill-rule: evenodd;"/>
  </g>
</svg>