<svg viewBox="0 0 62 33" fill="none" xmlns="http://www.w3.org/2000/svg">
  <g id="root">
    <path d="M21.1548 24.8844C20.494 24.8844 19.8602 24.6233 19.393 24.1584C18.9257 23.6936 18.6632 23.0631 18.6632 22.4057V3.48649C18.6632 2.8291 18.9257 2.19863 19.393 1.73379C19.8602 1.26894 20.494 1.00779 21.1548 1.00779C21.8156 1.00779 22.4494 1.26894 22.9166 1.73379C23.3839 2.19863 23.6464 2.8291 23.6464 3.48649V22.4057C23.6464 23.0631 23.3839 23.6936 22.9166 24.1584C22.4494 24.6233 21.8156 24.8844 21.1548 24.8844Z" fill="#0635DA"/>
    <path d="M38.8236 24.8844C38.3508 24.8831 37.888 24.7485 37.4889 24.4963C37.0898 24.244 36.7708 23.8844 36.5687 23.4592L36.4453 23.1944L36.2188 23.3803C36.1316 23.4513 36.05 23.5144 35.9685 23.5752C34.9927 24.3033 33.8325 24.7466 32.6177 24.8557C31.4029 24.9648 30.1816 24.7352 29.0906 24.1928C27.9996 23.6503 27.0819 22.8164 26.4404 21.7844C25.7989 20.7524 25.4589 19.5631 25.4585 18.3497V11.5896C25.4585 10.9322 25.721 10.3017 26.1882 9.83688C26.6555 9.37203 27.2892 9.11088 27.9501 9.11088C29.5481 9.11088 30.4088 10.7063 30.4417 11.5986V18.2212C30.4417 18.9981 30.7519 19.7432 31.3041 20.2926C31.8563 20.842 32.6053 21.1506 33.3863 21.1506C34.1672 21.1506 34.9162 20.842 35.4684 20.2926C36.0206 19.7432 36.3309 18.9981 36.3309 18.2212V11.5896C36.3309 10.9322 36.5934 10.3017 37.0607 9.83688C37.5279 9.37203 38.1617 9.11088 38.8225 9.11088C39.4833 9.11088 40.117 9.37203 40.5843 9.83688C41.0516 10.3017 41.3141 10.9322 41.3141 11.5896V22.3392C41.3141 22.3685 41.3141 22.3866 41.3141 22.4057C41.3151 22.6868 41.2668 22.9659 41.1714 23.2305C41 23.7138 40.6821 24.1324 40.2617 24.4286C39.8412 24.7248 39.3388 24.884 38.8236 24.8844Z" fill="#0635DA"/>
    <path d="M14.3584 10.864C14.0186 10.5722 12.2066 9.1199 9.70817 9.11426H9.69458C8.95999 9.11581 8.23002 9.22982 7.53029 9.45227C6.73978 9.70921 6.00155 10.1041 5.35014 10.6184L4.98319 10.9136V3.47748C4.98319 2.82009 4.72069 2.18962 4.25342 1.72477C3.78616 1.25993 3.15241 0.998779 2.4916 0.998779C1.83078 0.998779 1.19704 1.25993 0.729772 1.72477C0.262507 2.18962 0 2.82009 0 3.47748V22.4057C0.000934743 22.9828 0.204267 23.5415 0.574935 23.9855C0.945604 24.4294 1.46037 24.7308 2.03047 24.8376C2.60057 24.9444 3.19027 24.85 3.69787 24.5706C4.20547 24.2912 4.59916 23.8443 4.81105 23.3071L4.9243 23.013L5.16667 23.2169C6.43425 24.291 8.04425 24.882 9.7093 24.8844C12.1681 24.8844 13.9733 23.4603 14.3097 23.1752C15.9156 21.8075 16.7696 19.82 16.8466 17.2624C16.9236 14.5471 16.0629 12.3354 14.3584 10.864ZM8.35591 20.8317C6.55969 20.8317 4.93223 19.4673 4.93223 16.9886C4.93223 14.5099 6.55969 13.1455 8.35591 13.1455C10.1793 13.1455 11.8068 14.4818 11.8068 16.9605C11.8068 19.4392 10.1748 20.8284 8.35138 20.8284L8.35591 20.8317Z" fill="#0635DA"/>
    <path d="M59.5322 12.6363L51.447 29.8813L50.6542 31.5623C50.5159 31.8573 50.3205 32.1223 50.0792 32.3422C49.8379 32.5622 49.5555 32.7326 49.248 32.844C48.9405 32.9553 48.6139 33.0052 48.287 32.991C47.9601 32.9768 47.6392 32.8987 47.3426 32.7611C47.0461 32.6235 46.7796 32.4291 46.5586 32.1891C46.3375 31.949 46.1662 31.668 46.0543 31.3621C45.9424 31.0562 45.8921 30.7314 45.9064 30.4061C45.9207 30.0809 45.9993 29.7617 46.1376 29.4666L48.6926 24.0158L43.3561 12.6363C43.2099 12.3403 43.1246 12.0183 43.1052 11.6892C43.0857 11.36 43.1324 11.0303 43.2426 10.7193C43.3528 10.4083 43.5243 10.1224 43.747 9.87813C43.9697 9.6339 44.2391 9.43634 44.5395 9.297C44.8399 9.15765 45.1653 9.07934 45.4965 9.06664C45.8277 9.05393 46.1581 9.1071 46.4684 9.22302C46.7787 9.33894 47.0626 9.51529 47.3035 9.74173C47.5445 9.96817 47.7376 10.2402 47.8715 10.5418L51.4413 18.157L55.0156 10.5418C55.2948 9.94593 55.8005 9.48484 56.4214 9.25991C57.0424 9.03499 57.7277 9.06467 58.3266 9.34242C58.9255 9.62016 59.389 10.1232 59.6151 10.7409C59.8412 11.3587 59.8114 12.0404 59.5322 12.6363Z" fill="#0635DA"/>
    <path d="M59.5811 24.8878C60.9165 24.8878 61.9991 23.8109 61.9991 22.4824C61.9991 21.1539 60.9165 20.0769 59.5811 20.0769C58.2457 20.0769 57.1631 21.1539 57.1631 22.4824C57.1631 23.8109 58.2457 24.8878 59.5811 24.8878Z" fill="#A83BF9"/>
  </g>
</svg>
