<svg width="102" height="102" viewBox="0 0 102 102" fill="none" xmlns="http://www.w3.org/2000/svg">
<path d="M60.5034 36.4882C67.5133 29.3928 78.9392 29.3928 85.9491 36.4882C91.8026 42.387 92.1808 52.216 87.2309 59.878C85.1894 63.038 81.7026 64.8069 78.2755 66.359C61.8842 73.7822 58.6036 83.6513 60.5034 90.6666C49.6677 88.4629 33.5646 71.3176 26.5237 64.2222C19.4829 57.1268 19.4937 43.5836 26.5346 36.4882C33.5754 29.3928 44.9704 29.3928 52.0421 36.4882L56.2727 40.7517L60.5034 36.4882Z" fill="black"/>
<path d="M60.5034 36.4882C67.5133 29.3928 78.9392 29.3928 85.9491 36.4882C91.8026 42.387 92.1808 52.216 87.2309 59.878C85.1894 63.038 81.7026 64.8069 78.2755 66.359C61.8842 73.7822 58.6036 83.6513 60.5034 90.6666C49.6677 88.4629 33.5646 71.3176 26.5237 64.2222C19.4829 57.1268 19.4937 43.5836 26.5346 36.4882C33.5754 29.3928 44.9704 29.3928 52.0421 36.4882L56.2727 40.7517L60.5034 36.4882Z" fill="url(#paint0_linear_775_1667)" fill-opacity="0.3"/>
<path d="M54.8393 27.9883C61.8493 20.8928 73.2751 20.8928 80.2851 27.9883C86.1385 33.8871 86.5167 43.7161 81.5668 51.378C79.5253 54.5381 76.0385 56.307 72.6114 57.859C56.2202 65.2823 52.9395 75.1513 54.8393 82.1667C44.0036 79.963 27.9005 62.8177 20.8597 55.7222C13.8189 48.6268 13.8297 35.0837 20.8705 27.9883C27.9113 20.8928 39.3063 20.8928 46.378 27.9883L50.6087 32.2517L54.8393 27.9883Z" stroke="white" stroke-width="2.00059" stroke-linecap="round" stroke-linejoin="round"/>
<defs>
<linearGradient id="paint0_linear_775_1667" x1="55.9569" y1="31.1666" x2="55.9569" y2="90.6666" gradientUnits="userSpaceOnUse">
<stop stop-color="white"/>
<stop offset="1" stop-color="white" stop-opacity="0"/>
</linearGradient>
</defs>
</svg>
