<svg width="102" height="102" viewBox="0 0 102 102" fill="none" xmlns="http://www.w3.org/2000/svg">
<ellipse cx="55.2506" cy="52.4166" rx="41.0833" ry="28.3333" fill="black"/>
<ellipse cx="55.2503" cy="52.4166" rx="41.0833" ry="28.3333" fill="url(#paint0_linear_775_1663)" fill-opacity="0.3"/>
<path d="M77.1025 46.0417C77.1025 59.3057 66.6631 70.0177 53.8348 70.0177C41.0065 70.0177 30.5671 59.3057 30.5671 46.0417C30.5671 32.7776 41.0065 22.0657 53.8348 22.0657C66.6631 22.0657 77.1025 32.7776 77.1025 46.0417Z" stroke="#74ABFF" stroke-width="1.63131"/>
<path d="M64.3525 46.0416C64.3525 51.4104 59.6939 55.851 53.8348 55.851C47.9757 55.851 43.3171 51.4104 43.3171 46.0416C43.3171 40.6729 47.9757 36.2323 53.8348 36.2323C59.6939 36.2323 64.3525 40.6729 64.3525 46.0416Z" stroke="#74ABFF" stroke-width="1.63131"/>
<path d="M87.0195 48.1666C87.0195 55.6459 82.6245 62.5054 75.339 67.5298C68.057 72.5519 57.9524 75.6843 46.7518 75.6843C35.5512 75.6843 25.4466 72.5519 18.1646 67.5298C10.8791 62.5054 6.48411 55.6459 6.48411 48.1666C6.48411 40.6873 10.8791 33.8278 18.1646 28.8034C25.4466 23.7813 35.5512 20.6489 46.7518 20.6489C57.9524 20.6489 68.057 23.7813 75.339 28.8034C82.6245 33.8278 87.0195 40.6873 87.0195 48.1666Z" stroke="#74ABFF" stroke-width="1.63131"/>
<defs>
<linearGradient id="paint0_linear_775_1663" x1="55.2503" y1="24.0833" x2="55.2503" y2="80.7499" gradientUnits="userSpaceOnUse">
<stop stop-color="#71B9F0"/>
<stop offset="1" stop-color="#71B9F0" stop-opacity="0"/>
</linearGradient>
</defs>
</svg>
