<svg width="102" height="102" viewBox="0 0 102 102" fill="none" xmlns="http://www.w3.org/2000/svg">
<path d="M39.3089 59.0615C30.9661 55.985 25 47.798 25 38.1818C25 25.9311 34.6829 16 46.6273 16C54.6691 16 61.6857 20.5017 65.4124 27.1821C78.1884 28.2717 88.2182 38.9873 88.2182 52.0455C88.2182 65.8275 77.0456 77 63.2636 77C51.9176 77 42.3401 69.4279 39.3089 59.0615Z" fill="black"/>
<path d="M39.3089 59.0615C30.9661 55.985 25 47.798 25 38.1818C25 25.9311 34.6829 16 46.6273 16C54.6691 16 61.6857 20.5017 65.4124 27.1821C78.1884 28.2717 88.2182 38.9873 88.2182 52.0455C88.2182 65.8275 77.0456 77 63.2636 77C51.9176 77 42.3401 69.4279 39.3089 59.0615Z" fill="url(#paint0_linear_775_1665)" fill-opacity="0.3"/>
<circle cx="52" cy="61" r="24.25" stroke="white" stroke-width="1.5"/>
<path d="M56.25 47C56.25 58.7524 46.9437 68.25 35.5 68.25C24.0563 68.25 14.75 58.7524 14.75 47C14.75 35.2476 24.0563 25.75 35.5 25.75C46.9437 25.75 56.25 35.2476 56.25 47Z" stroke="white" stroke-width="1.5"/>
<defs>
<linearGradient id="paint0_linear_775_1665" x1="56.6091" y1="16" x2="56.6091" y2="77" gradientUnits="userSpaceOnUse">
<stop stop-color="white"/>
<stop offset="1" stop-color="white" stop-opacity="0"/>
</linearGradient>
</defs>
</svg>
