<svg width="102" height="102" viewBox="0 0 102 102" fill="none" xmlns="http://www.w3.org/2000/svg">
<circle cx="61.6256" cy="53.125" r="34.7083" fill="black"/>
<circle cx="61.6253" cy="53.125" r="34.7083" fill="url(#paint0_linear_775_1671)" fill-opacity="0.3"/>
<path d="M84.2926 48.1667C84.2926 67.3491 69.0568 82.875 50.2926 82.875C31.5283 82.875 16.2926 67.3491 16.2926 48.1667C16.2926 28.9843 31.5283 13.4584 50.2926 13.4584C69.0568 13.4584 84.2926 28.9843 84.2926 48.1667Z" stroke="#EC9E29" stroke-width="1.41667"/>
<path d="M75.0839 48.1667C75.0839 51.3294 74.461 54.4611 73.2507 57.383C72.0404 60.3049 70.2664 62.9598 68.0301 65.1962C65.7937 67.4325 63.1388 69.2065 60.2169 70.4168C57.2949 71.6271 54.1632 72.25 51.0006 72.25C47.8379 72.25 44.7062 71.6271 41.7843 70.4168C38.8624 69.2065 36.2074 67.4325 33.9711 65.1962C31.7347 62.9598 29.9608 60.3049 28.7505 57.383C27.5402 54.4611 26.9172 51.3294 26.9172 48.1667" stroke="#EC9E29" stroke-width="1.41667" stroke-linecap="round"/>
<defs>
<linearGradient id="paint0_linear_775_1671" x1="61.6253" y1="18.4167" x2="61.6253" y2="87.8333" gradientUnits="userSpaceOnUse">
<stop stop-color="#EC9E29"/>
<stop offset="1" stop-color="#EC9E29" stop-opacity="0"/>
</linearGradient>
</defs>
</svg>
