<?xml version="1.0" encoding="UTF-8"?>
<svg id="Layer_1" data-name="Layer 1" xmlns="http://www.w3.org/2000/svg" viewBox="0 0 165 164">
  <g id="root">
    <rect x="64.83" y="74.33" width="27.02" height="13.09" rx="5" ry="5" transform="translate(-34.24 79.08) rotate(-45)" style="fill: #1890ff;"/>
    <path d="M96.71,28.8c1.19-1.19,3.13-1.19,4.32,0l30.6,30.6c1.19,1.19,1.19,3.13,0,4.32l-10.5,10.5c-9.64,9.64-25.27,9.64-34.91,0-9.64-9.64-9.64-25.27,0-34.91l10.5-10.5Z" style="fill: #e2f1ff; stroke: #1890ff; stroke-linecap: round; stroke-width: 2px;"/>
    <line x1="106.75" y1="34.44" x2="124.19" y2="17" style="fill: none; stroke: #1890ff; stroke-linecap: round; stroke-width: 2px;"/>
    <line x1="127.32" y1="55" x2="144.75" y2="37.56" style="fill: none; stroke: #1890ff; stroke-linecap: round; stroke-width: 2px;"/>
    <path d="M71.17,88.38l-21.35,24.54c-4.76,5.1-16.95,7.07-23.58,2.23-6.63-4.84-9.86-13.06-5.74-18.16,5.42-6.69,11.54-1.4,15.61,5.74,4.08,7.14,6.37,19.76,7.01,25.17,1.09,9.24,4.46,15.1,14.66,18.16,12.75,3.82,41.74-7.33,51.94-24.22" style="fill: none; stroke: #1890ff; stroke-linecap: round; stroke-width: 2px;"/>
  </g>
</svg>