<?xml version="1.0" encoding="UTF-8"?>
<svg id="Layer_1" data-name="Layer 1" xmlns="http://www.w3.org/2000/svg" viewBox="0 0 164 164">
  <g id="root">
    <path d="M81.85,122V16" style="fill: none; stroke: #1890ff; stroke-linecap: round; stroke-width: 2px;"/>
    <path d="M100.17,126.3c4.53,5.53,7.25,12.92,7.63,20.75,.03,.5-.39,.95-.95,.95H56.85c-.57,0-.98-.45-.95-.95,.39-7.83,3.11-15.22,7.63-20.75,4.9-5.99,11.49-9.3,18.32-9.3s13.42,3.31,18.32,9.3Z" style="fill: #e2f1ff; stroke: #1890ff; stroke-linejoin: round; stroke-width: 2px;"/>
    <path d="M29,28h106" style="fill: none; stroke: #1890ff; stroke-linecap: round; stroke-width: 2px;"/>
    <path d="M37,74.75c-2.97-3.14-4.74-7.32-4.97-11.75h33.95c-.23,4.43-2,8.61-4.97,11.75-3.19,3.37-7.51,5.25-12,5.25s-8.81-1.88-12-5.25Z" style="fill: #1890ff; stroke: #1890ff; stroke-linejoin: round; stroke-width: 2px;"/>
    <path d="M34,61.62l12.68-32.05c.66-1.67,3.01-1.69,3.71-.03l13.4,32.08" style="fill: none; stroke: #1890ff; stroke-linecap: round; stroke-width: 2px;"/>
    <path d="M104,74.75c-2.97-3.14-4.74-7.32-4.97-11.75h33.95c-.23,4.43-2,8.61-4.97,11.75-3.19,3.37-7.51,5.25-12,5.25s-8.81-1.88-12-5.25Z" style="fill: #1890ff; stroke: #1890ff; stroke-linejoin: round; stroke-width: 2px;"/>
    <path d="M101.77,61.62l12.68-32.05c.66-1.67,3.01-1.69,3.71-.03l13.4,32.08" style="fill: none; stroke: #1890ff; stroke-linecap: round; stroke-width: 2px;"/>
  </g>
</svg>