<?xml version="1.0" encoding="UTF-8"?>
<svg id="Layer_1" data-name="Layer 1" xmlns="http://www.w3.org/2000/svg" viewBox="0 0 164 164">
  <g id="root">
    <ellipse cx="111.59" cy="83.84" rx="17.46" ry="17.88" style="fill: #e2f1ff; stroke: #1890ff; stroke-linejoin: round; stroke-width: 2px;"/>
    <path d="M142.5,146c3.38,0,6.16-2.75,5.77-6.11-1.1-9.49-4.76-18.35-10.49-25.2-6.95-8.3-16.37-12.97-26.19-12.97s-19.24,4.66-26.19,12.97c-5.73,6.85-9.39,15.71-10.49,25.2-.39,3.36,2.39,6.11,5.77,6.11h61.83Z" style="fill: #e2f1ff; stroke: #1890ff; stroke-linejoin: round; stroke-width: 2px;"/>
    <path d="M14.77,23c0-2.76,2.24-5,5-5H84.84c2.76,0,5,2.24,5,5V60.96c0,2.76-2.24,5-5,5h-3.85c-3.16,0-5.52,2.89-4.9,5.98l1.31,6.55c.39,1.95-2,3.21-3.39,1.79l-12.59-12.83c-.94-.96-2.23-1.5-3.57-1.5H19.77c-2.76,0-5-2.24-5-5V23Z" style="fill: none; stroke: #1890ff; stroke-width: 2px;"/>
    <path d="M44.01,28.48c4.08-.48,7.39,2.61,8.39,3.61,2.4-3.61,5.89-3.71,7.19-3.61,2.2,0,6.17,1.13,7.49,5.11,1.8,5.41-1.5,9.32-3.6,12.03l-11.09,9.92-11.39-9.92c-4.79-5.11-4.2-9.72-3.6-12.03,.5-1.5,2.52-4.63,6.59-5.11Z" style="fill: #1890ff;"/>
  </g>
</svg>