<svg width="27" height="27" viewBox="0 0 27 27" fill="none" xmlns="http://www.w3.org/2000/svg">
<path d="M13.5 1.6875C6.97676 1.6875 1.6875 6.97676 1.6875 13.5C1.6875 20.0232 6.97676 25.3125 13.5 25.3125C20.0232 25.3125 25.3125 20.0232 25.3125 13.5C25.3125 6.97676 20.0232 1.6875 13.5 1.6875Z" fill="#0635DA"/>
<path d="M18.6019 9.64248L13.049 17.3417C12.9714 17.45 12.869 17.5383 12.7505 17.5992C12.632 17.6601 12.5006 17.6918 12.3674 17.6918C12.2341 17.6918 12.1028 17.6601 11.9842 17.5992C11.8657 17.5383 11.7634 17.45 11.6858 17.3417L8.39779 12.7854C8.2976 12.6457 8.39779 12.4506 8.56918 12.4506L9.8058 12.4506C10.0747 12.4506 10.3305 12.5798 10.4887 12.8013L12.3661 15.4063L16.511 9.6583C16.6692 9.43945 16.9223 9.30762 17.1939 9.30762L18.4305 9.30762C18.6019 9.30762 18.7021 9.50273 18.6019 9.64248Z" fill="#E4E1E6"/>
</svg>
