<?xml version="1.0" encoding="UTF-8"?>
<svg id="Layer_1" data-name="Layer 1" xmlns="http://www.w3.org/2000/svg" viewBox="0 0 40 40">
  <g id="root">
    <path d="M26.77,13.86c0-.17-.14-.31-.31-.31h-2.58l-3.88,4.64-3.88-4.62h-2.58c-.17-.01-.31,.12-.31,.3,0,.07,.03,.14,.07,.2l5.08,6.05-5.08,6.05c-.05,.06-.07,.13-.07,.2,0,.17,.14,.31,.31,.31h2.58l3.88-4.64,3.88,4.62h2.58c.17,.01,.31-.12,.31-.3,0-.07-.03-.14-.07-.2l-5.07-6.05,5.08-6.05c.05-.05,.07-.13,.07-.2Z" style="fill: currentColor;"/>
    <path d="M20,2.54C10.34,2.54,2.5,10.38,2.5,20.04s7.84,17.5,17.5,17.5,17.5-7.84,17.5-17.5S29.66,2.54,20,2.54Zm0,32.03c-8.02,0-14.53-6.51-14.53-14.53S11.98,5.51,20,5.51s14.53,6.51,14.53,14.53-6.51,14.53-14.53,14.53Z" style="fill: currentColor;"/>
  </g>
</svg>