<?xml version="1.0" encoding="UTF-8"?>
<svg id="Layer_1" data-name="Layer 1" xmlns="http://www.w3.org/2000/svg" viewBox="0 0 164 164">
  <g id="root">
    <path d="M39.72,20.5c0-2.83,2.29-5.12,5.12-5.12h45.25c1.38,0,2.7,.55,3.66,1.54l29.88,30.49,.6,80.68c.02,2.85-2.28,5.16-5.12,5.16H44.84c-2.83,0-5.12-2.29-5.12-5.12V20.5Z" style="fill: #e2f1ff; stroke: #1890ff; stroke-linejoin: round; stroke-width: 2.56px;"/>
    <path d="M92.25,15.38v26.91c0,2.83,2.29,5.12,5.12,5.12h26.91" style="fill: none; stroke: #1890ff; stroke-linejoin: round; stroke-width: 2.56px;"/>
    <path d="M114.03,108.91c-11.32,0-20.5,9.18-20.5,20.5s9.18,20.5,20.5,20.5,20.5-9.18,20.5-20.5-9.18-20.5-20.5-20.5Z" style="fill: #1890ff;"/>
    <path d="M124.33,120.64h-2.58c-.56,0-1.1,.27-1.43,.73l-8.66,12.01-3.92-5.45c-.33-.46-.86-.73-1.43-.73h-2.58c-.36,0-.57,.41-.36,.7l6.87,9.52c.16,.23,.38,.41,.62,.54,.25,.13,.52,.19,.8,.19s.55-.07,.8-.19,.46-.31,.62-.54l11.6-16.09c.22-.29,0-.7-.35-.7Z" style="fill: #fff;"/>
  </g>
</svg>