<svg id="Layer_1" data-name="Layer 1" xmlns="http://www.w3.org/2000/svg" viewBox="0 0 18 19">
  <g id="root">
    <path d="M14.91,11.74a.67.67,0,0,0-.67.67v2.18H3.76V12.41a.67.67,0,0,0-.67-.67.66.66,0,0,0-.66.67v2.95a.56.56,0,0,0,.56.56H15a.56.56,0,0,0,.56-.56V12.41A.66.66,0,0,0,14.91,11.74Z" style="fill: #fff"/>
    <path d="M11.84,9.15a.59.59,0,0,1,0,.8L9.59,12.2a.76.76,0,0,1-.19.12.49.49,0,0,1-.21,0,.54.54,0,0,1-.22,0,.71.71,0,0,1-.18-.12L6.54,10a.57.57,0,0,1,.8-.8l1.28,1.29V4.3a.57.57,0,0,1,.57-.56.56.56,0,0,1,.56.56v6.14L11,9.15A.57.57,0,0,1,11.84,9.15Z" style="fill: #fff;fill-rule: evenodd"/>
  </g>
</svg>
