<?xml version="1.0" encoding="UTF-8"?>
<svg id="Layer_1" data-name="Layer 1" xmlns="http://www.w3.org/2000/svg" viewBox="0 0 24 24">
  <g id="root">
    <path d="M20.62,2H3.38c-.41,0-.75,.34-.75,.75V20c0,.41,.34,.75,.75,.75H11.81c.1,0,.19-.08,.19-.19v-1.31c0-.1-.08-.19-.19-.19H4.31V3.69h15.38v7.5c0,.1,.08,.19,.19,.19h1.31c.1,0,.19-.08,.19-.19V2.75c0-.41-.34-.75-.75-.75Z" style="fill: currentColor;"/>
    <path d="M18.32,19.12l-1.18,1.27s-.04,.06-.05,.09c0,.03,0,.07,0,.1,.01,.03,.03,.06,.06,.08,.03,.02,.06,.03,.1,.04l4.22,.34c.12,0,.22-.09,.2-.22l-.64-4.18c-.02-.15-.22-.21-.32-.1l-1.18,1.27-6.22-5.78c-.08-.07-.19-.07-.26,0l-.96,1.03c-.07,.08-.07,.19,0,.26l6.22,5.78Z" style="fill: currentColor;"/>
  </g>
</svg>