<svg id="Layer_1" data-name="Layer 1" xmlns="http://www.w3.org/2000/svg" viewBox="0 0 165 164">
  <g id="root">
    <path d="M29.44,71.69h-5a5,5,0,0,0-5,4.79L18.54,98a5,5,0,0,0,5,5.21H59.21a5,5,0,0,1,2.21.52l1.29.63a5,5,0,0,0,2.21.52H73a5,5,0,0,0,5-5V71.31a5,5,0,0,0-5-5H71a5,5,0,0,1-4.81-3.7,5,5,0,0,0-4.34-3.68l-10-1a5,5,0,0,0-3.45,1L32.41,70.71A5,5,0,0,1,29.44,71.69Z" style="fill: #e2f1ff"/>
    <path d="M135.9,71h5a5,5,0,0,1,5,4.79l.9,21.52a5,5,0,0,1-5,5.21H106.12a4.88,4.88,0,0,0-2.21.52l-1.29.63a5,5,0,0,1-2.21.52h-8.1a5,5,0,0,1-5-5V70.65a5,5,0,0,1,5-5h2.06A5,5,0,0,0,99.18,62a5,5,0,0,1,4.34-3.68l10-1a5,5,0,0,1,3.45,1L132.92,70A5,5,0,0,0,135.9,71Z" style="fill: #e2f1ff"/>
    <path d="M59.08,102.89H20.67a5,5,0,0,1-5-5V76.33a5,5,0,0,1,5-5H29.5a5,5,0,0,0,2.94-1L48.29,58.87a5.07,5.07,0,0,1,3.35-.94l10,.84a5,5,0,0,1,4.5,4L68.7,75.73c.42,2.14-.61,4.42-2.78,4.6-3,.25-6.77-.94-9.34-6.21h0a1.61,1.61,0,0,0-3.16.37c-.89,4.65-3.09,10-11,11.32" style="fill: none;stroke: #1890ff;stroke-linecap: round;stroke-width: 2px"/>
    <path d="M106.26,102.23h38.41a5,5,0,0,0,5-5V75.67a5,5,0,0,0-5-5h-8.84a5,5,0,0,1-2.94-1L117,58.21a5,5,0,0,0-3.35-.94l-10,.83a5,5,0,0,0-4.49,4L96.64,75.07c-.42,2.13.61,4.42,2.78,4.6,3,.24,6.76-1,9.33-6.22h0a1.61,1.61,0,0,1,3.16.38c.89,4.65,3.09,10,11,11.32" style="fill: none;stroke: #1890ff;stroke-linecap: round;stroke-width: 2px"/>
    <path d="M67.23,65.74h6.94a5,5,0,0,1,5,5.18l-1,29a5,5,0,0,1-4.63,4.82l-8.6.62a5,5,0,0,1-4-1.5l-4.13-4.25a4.94,4.94,0,0,1-1.41-3.35L54.8,72.89" style="fill: none;stroke: #1890ff;stroke-linecap: round;stroke-width: 2px"/>
    <path d="M98.11,65.08h-7a5,5,0,0,0-5,5.17l1,29a5,5,0,0,0,4.64,4.81l8.59.63a5,5,0,0,0,3.95-1.5L108.48,99a5,5,0,0,0,1.42-3.35l.63-23.39" style="fill: none;stroke: #1890ff;stroke-linecap: round;stroke-width: 2px"/>
    <path d="M24.29,71.05v32.5H20.67a5,5,0,0,1-5-5V76.05a5,5,0,0,1,5-5Z" style="fill: #1890ff"/>
    <path d="M141,70.39v32.5h3.63a5,5,0,0,0,5-5V75.39a5,5,0,0,0-5-5Z" style="fill: #1890ff"/>
    <line x1="82.8" y1="120.45" x2="82.8" y2="147" style="fill: none;stroke: #1890ff;stroke-linecap: round;stroke-width: 2px"/>
    <line x1="82.8" y1="42.55" x2="82.8" y2="16" style="fill: none;stroke: #1890ff;stroke-linecap: round;stroke-width: 2px"/>
    <line x1="100.76" y1="115.97" x2="113.31" y2="139.36" style="fill: none;stroke: #1890ff;stroke-linecap: round;stroke-width: 2px"/>
    <line x1="100.76" y1="47.03" x2="113.31" y2="23.63" style="fill: none;stroke: #1890ff;stroke-linecap: round;stroke-width: 2.000000176223175px"/>
    <line x1="64.8" y1="115.97" x2="52.26" y2="139.36" style="fill: none;stroke: #1890ff;stroke-linecap: round;stroke-width: 2.000000176223175px"/>
    <line x1="64.8" y1="47.03" x2="52.26" y2="23.63" style="fill: none;stroke: #1890ff;stroke-linecap: round;stroke-width: 2px"/>
  </g>
</svg>
