<svg id="Layer_1" data-name="Layer 1" xmlns="http://www.w3.org/2000/svg" viewBox="0 0 165 164">
  <g id="root">
    <path d="M83.44,103.21l7.12-1.57V20l-3.5-3H37.12L34.9,20V72.44l.63,38.44v4.43l2.87,1.48H69.89l-15-10.52v-4.63l2.88-4.07L61,96.46l5.09,1.66,9.51,3.52Z" style="fill: #e2f1ff"/>
    <path d="M90.56,100.47V22a5,5,0,0,0-5-5H39.9a5,5,0,0,0-5,5v89.79a5,5,0,0,0,5,5H66.8" style="fill: none;stroke: #1890ff;stroke-linecap: round;stroke-width: 2px"/>
    <path d="M91.92,73.68l12.46,1.94a5,5,0,0,1,3.87,3.08l19.24,47.94a5,5,0,0,1-2.55,6.4L99.49,144.77A5,5,0,0,1,92.73,142l-3.68-9.6a5,5,0,0,0-1.7-2.23L60,110c-4.07-3-7.6-6.17-4.07-10.52s7.47-1.81,9.17-1c8,3.74,27.35,9,29.53,0" style="fill: none;stroke: #1890ff;stroke-linecap: round;stroke-width: 2px"/>
    <path d="M60.49,51.37a2,2,0,0,1,3.8,0l2.3,7.07a2,2,0,0,0,1.9,1.38h7.44a2,2,0,0,1,1.17,3.62l-6,4.37A2,2,0,0,0,70.36,70l2.3,7.07a2,2,0,0,1-3.08,2.24l-6-4.37a2,2,0,0,0-2.36,0l-6,4.37a2,2,0,0,1-3.08-2.24L54.42,70a2,2,0,0,0-.73-2.23l-6-4.37a2,2,0,0,1,1.17-3.62h7.44a2,2,0,0,0,1.9-1.38Z" style="fill: #1890ff"/>
    <path d="M90.22,135.46l34-16,3,4.07,1.36,7.13L97.35,146.32l-3-1.36-2.38-4.41Z" style="fill: #1890ff"/>
    <line x1="36.44" y1="30.07" x2="89.91" y2="30.07" style="fill: none;stroke: #1890ff;stroke-linecap: round;stroke-width: 2px"/>
    <path d="M35.58,101.86h19" style="fill: none;stroke: #1890ff;stroke-linecap: round;stroke-width: 2px"/>
  </g>
</svg>
