<?xml version="1.0" encoding="UTF-8"?>
<svg id="Layer_1" data-name="Layer 1" xmlns="http://www.w3.org/2000/svg" viewBox="0 0 24 25">
  <g id="root">
    <path d="M21.75,4.25H2.25c-.41,0-.75,.34-.75,.75v15c0,.41,.34,.75,.75,.75H21.75c.41,0,.75-.34,.75-.75V5c0-.41-.34-.75-.75-.75Zm-.94,2.6v12.22H3.19V6.85l-.65-.5,.92-1.18,1,.78h15.07l1-.78,.92,1.18-.65,.5Zm-1.27-.91l-7.54,5.86L4.46,5.94l-1-.78-.92,1.18,.65,.5,8.01,6.22c.23,.18,.51,.28,.81,.28s.57-.1,.81-.28l8.01-6.22,.65-.5-.92-1.18-1,.78Z" style="fill: currentColor;"/>
  </g>
</svg>