<?xml version="1.0" encoding="UTF-8"?>
<svg id="Layer_1" data-name="Layer 1" xmlns="http://www.w3.org/2000/svg" viewBox="0 0 165 164">
  <g id="root">
    <path d="M21.27,73.3c33.61-36.25,88.28-36.47,121.89-.23l1.27,1.37c3.89,4.2,3.87,11.06-.03,15.27-33.61,36.25-88.28,36.47-121.89,.23l-1.27-1.37c-3.89-4.2-3.87-11.06,.03-15.27Z" style="fill: #e2f1ff; stroke: #1890ff; stroke-linecap: round; stroke-width: 2px;"/>
    <circle cx="82.59" cy="81.97" r="26.21" style="fill: #fff; stroke: #1890ff; stroke-linecap: round; stroke-width: 2px;"/>
    <circle cx="82.59" cy="81.97" r="10.72" style="fill: #1890ff;"/>
    <line x1="84.89" y1="146.23" x2="84.89" y2="119.26" style="fill: none; stroke: #1890ff; stroke-linecap: round; stroke-width: 2px;"/>
    <line x1="80.12" y1="17" x2="80.12" y2="43.97" style="fill: none; stroke: #1890ff; stroke-linecap: round; stroke-width: 2px;"/>
    <line x1="51.27" y1="113.85" x2="36.16" y2="133.7" style="fill: none; stroke: #1890ff; stroke-linecap: round; stroke-width: 2px;"/>
    <line x1="113.74" y1="49.05" x2="128.85" y2="29.2" style="fill: none; stroke: #1890ff; stroke-linecap: round; stroke-width: 2px;"/>
    <line x1="113.74" y1="113.85" x2="128.85" y2="133.7" style="fill: none; stroke: #1890ff; stroke-linecap: round; stroke-miterlimit: 4; stroke-width: 2px;"/>
    <line x1="51.27" y1="49.05" x2="36.16" y2="29.2" style="fill: none; stroke: #1890ff; stroke-linecap: round; stroke-miterlimit: 4; stroke-width: 2px;"/>
  </g>
</svg>