<?xml version="1.0" encoding="UTF-8"?>
<svg id="Layer_1" data-name="Layer 1" xmlns="http://www.w3.org/2000/svg" viewBox="0 0 164 164">
  <g id="root">
    <path d="M141.88,104.34c3.38,0,6.18-2.76,5.59-6.09-.98-5.48-3.27-10.55-6.64-14.57-4.6-5.48-10.83-8.56-17.33-8.56s-12.74,3.08-17.33,8.56c-3.37,4.02-5.66,9.1-6.64,14.57-.6,3.33,2.2,6.09,5.59,6.09h36.78Z" style="fill: #e2f1ff; stroke: #1890ff; stroke-linejoin: round; stroke-width: 2px;"/>
    <path d="M58.9,104.34c3.38,0,6.18-2.76,5.59-6.09-.98-5.48-3.27-10.55-6.64-14.57-4.6-5.48-10.83-8.56-17.33-8.56s-12.74,3.08-17.33,8.56c-3.37,4.02-5.66,9.1-6.64,14.57-.6,3.33,2.2,6.09,5.59,6.09H58.9Z" style="fill: #e2f1ff; stroke: #1890ff; stroke-linejoin: round; stroke-width: 2px;"/>
    <ellipse cx="123.49" cy="63.33" rx="11.31" ry="11.79" style="fill: #e2f1ff; stroke: #1890ff; stroke-linejoin: round; stroke-width: 2px;"/>
    <ellipse cx="40.51" cy="63.33" rx="11.31" ry="11.79" style="fill: #e2f1ff; stroke: #1890ff; stroke-linejoin: round; stroke-width: 2px;"/>
    <ellipse cx="81.09" cy="60.86" rx="16.46" ry="16.86" style="fill: #e2f1ff; stroke: #1890ff; stroke-linejoin: round; stroke-width: 2px;"/>
    <path d="M109.89,119.46c3.38,0,6.16-2.75,5.75-6.11-1.09-8.81-4.52-17.04-9.85-23.41-6.55-7.83-15.43-12.23-24.69-12.23-9.26,0-18.14,4.4-24.69,12.23-5.33,6.37-8.76,14.6-9.85,23.41-.42,3.36,2.37,6.11,5.75,6.11h57.6Z" style="fill: #e2f1ff; stroke: #1890ff; stroke-linejoin: round; stroke-width: 2px;"/>
  </g>
</svg>