<?xml version="1.0" encoding="UTF-8"?>
<svg id="Layer_1" data-name="Layer 1" xmlns="http://www.w3.org/2000/svg" viewBox="0 0 164 164">
  <g id="root">
    <path d="M147.04,106.26v16.29H16v-22.98c0-13.85,10.1-24.49,23.83-24.49,.1,0,.28,0,.5,0,.56,0,1.35,0,1.57,0l.84,.03,.18-.82c4.11-18.77,20.77-33.29,40.66-33.29,22.98,0,41.3,18.91,41.3,42.01h0v.02h0v.02h0v.02h0v.02h0v.02h0v.02h0v.02h0v.02h0v.02h0v.02h0v.02h0v.02h0v.02h0v.02h0v.02h0v.02h0v.02h0v.02h0v.02h0v.02h0v.02h0v.02h0v.02h0v.02h0v.02h0v.02h0v.02h0v.02h0v.02h0v.03h0v.03h0v.03h0v.03h0v.03h0v.03h0v.03h0v.03h0v.03h0v.03h0v.03h0v.03h0v.03h0v.03h0v.03h0v.03h0v.03h0v.03h0v.03h0v.03h0v.03h0v.03h0v.03h0v.03h0v.03h0v.03h0v.03h0v.03h0v.03h0v.03h0v.03h0v.03h0v.03h0v.03h0v.03h0v.03h0v.03h0v.03h0v.03h0v.03h0v.03h0v.03h0v.03h0v.03h0v.03h0v.03h0v.03h0v.03h0v.03h0v.03h0v.03h0v.03h0v.03h0v.03h0v.03h0v.03h0v.03h0v.03h0v.03h0v.03h0v.03h0v.03h0v.03h0v.03h0v.03h0v.03h0v.03h0v.03h0v.03h0v.03h0v.03h0v.03h0v.03h0v.03h0v.03h0v.03h0v.03h0v.03h0v.03h0v.03h0v.03h0v.03h0v.03h0v.03h0v.03h0v.03h0v.03h0v.03h0v.03h0v.03h0v.03h0v.03h0v.03h0v.03h0v.03h0v.03h0v.03h0v.03h0v.03h0v.03h0v.03h0v.03h0v.03h0v.02h0v.02h0v.02h0v.02h0v.02h0v.02h0v.02h0v.02h0v.02h0v.02h0v.02h0v.02h0v.02h0v.02h0v.02h0v.02h0v.02h0v.02h0v.02h0v.02h0v.02h0v.02h0v.02h0v.02h0v.02h0v.02h0v.02h0v.02h0v.02h0v.02h0v.02h0v.02h0v.02h0v.02h0v.02h0v.02h0v.02h0v.02h0v.02h0v.02h0v.02h0v.02h0v.02h0v.02h0v.02h0v.02h0v.02h0v.02h0v.02h0v.02h0v.02h0v.02h0v.02h0v.02h0v.02h0v.02h0v.02h0v.02h0v.02h0v.02h0v.02h0v.02h0v.02h0v.02h0v.02h0v.02h0v.02h0v.02h0v.02h0v.02h0v.02h0v.02h0v.02h0v.02h0v.02h0v.02h0v.02h0v.02h0v.02h0v.02h0v.02h0v.02h0v.02h0v.02h0v.02h0v.02h0v.02h0v.02h0v.02h0v.02h0v.02h0v1.02h5.29c9.44,0,16.35,7.11,16.86,16.54l.03,.48Z" style="fill: #e2f1ff; stroke: #1890ff; stroke-linecap: round; stroke-width: 2px;"/>
    <path d="M81.89,62.21h0c5.86,0,10.6,4.75,10.6,10.6v6.08c0,5.86-4.75,10.6-10.6,10.6h0c-5.86,0-10.6-4.75-10.6-10.6v-6.08c0-5.86,4.75-10.6,10.6-10.6Z" style="fill: none; stroke: #1890ff; stroke-linecap: round; stroke-width: 2px;"/>
    <rect x="67.09" y="79.34" width="29.49" height="28.94" rx="4" ry="4" style="fill: #1890ff; stroke: #1890ff; stroke-linecap: round; stroke-width: 2px;"/>
    <circle cx="81.32" cy="93.51" r="3.68" style="fill: #fff;"/>
  </g>
</svg>