<?xml version="1.0" encoding="UTF-8"?>
<svg id="Layer_1" data-name="Layer 1" xmlns="http://www.w3.org/2000/svg" viewBox="0 0 164 164">
  <g id="root">
    <circle cx="30.45" cy="72.49" r="13.45" style="fill: #1890ff;"/>
    <path d="M84.71,42.01l.09-1h-.05l-.03,1Zm18.39,25.11l-1-.1,1,.1Zm-21.52,18.39l1-.05-1,.05Zm9.42-17.04l-.63-.78h-.01v.02l.64,.76Zm22.87,2.69l-.76,.65,.76-.65Zm34.34,6.54c.39-.39,.39-1.02,0-1.41l-6.36-6.36c-.39-.39-1.02-.39-1.41,0-.39,.39-.39,1.02,0,1.41l5.66,5.66-5.66,5.66c-.39,.39-.39,1.02,0,1.41,.39,.39,1.02,.39,1.41,0l6.36-6.36Zm-106.98-4.19c5.45,0,10.15-.68,14.18-3.05,4.05-2.38,7.31-6.4,10.05-12.8l-1.84-.79c-2.64,6.15-5.66,9.76-9.23,11.86-3.58,2.11-7.86,2.78-13.17,2.78v2Zm24.24-15.85c5.2-12.13,15.1-14.78,19.23-14.64l.07-2c-4.85-.16-15.57,2.87-21.13,15.85l1.84,.79Zm19.17-14.64c3.25,.28,8.06,1.82,11.83,5.5,3.73,3.64,6.52,9.46,5.64,18.52l1.99,.19c.92-9.6-2.04-16.04-6.24-20.14-4.16-4.06-9.43-5.75-13.06-6.07l-.17,1.99Zm17.48,24.02c-1.1,11.4-6.22,17.79-10.92,20.35-2.37,1.29-4.57,1.58-6.12,1.17-.76-.2-1.36-.57-1.77-1.06-.41-.49-.68-1.15-.73-2.02l-2,.11c.07,1.26,.48,2.35,1.19,3.2,.71,.85,1.68,1.42,2.78,1.71,2.18,.58,4.91,.11,7.59-1.34,5.39-2.94,10.81-9.99,11.95-21.91l-1.99-.19Zm-19.53,18.43c-.16-3.1,1.24-6.43,3.18-9.41,1.93-2.96,4.31-5.45,5.89-6.82l-1.31-1.51c-1.71,1.47-4.22,4.1-6.26,7.24-2.03,3.12-3.7,6.89-3.5,10.61l2-.11Zm9.05-16.21c1.88-1.54,5.25-3.27,9.13-3.43,3.83-.16,8.24,1.2,12.35,6l1.52-1.3c-4.5-5.25-9.5-6.88-13.95-6.69-4.39,.18-8.16,2.13-10.31,3.88l1.26,1.55Zm21.48,2.57c3.3,3.85,7.39,5.37,12.88,5.95,5.41,.57,12.4,.23,21.51,.23v-2c-9.27,0-16.03,.33-21.3-.22-5.19-.54-8.72-1.94-11.57-5.26l-1.52,1.3Z" style="fill: #1890ff;"/>
    <circle cx="30.45" cy="107.96" r="13.45" style="fill: #1890ff;"/>
    <path d="M148.65,108.67c.39-.39,.39-1.02,0-1.41l-6.36-6.36c-.39-.39-1.02-.39-1.41,0-.39,.39-.39,1.02,0,1.41l5.66,5.66-5.66,5.66c-.39,.39-.39,1.02,0,1.41,.39,.39,1.02,.39,1.41,0l6.36-6.36Zm-109.23,.29h108.52v-2H39.42v2Z" style="fill: #1890ff;"/>
  </g>
</svg>