<svg id="Layer_1" data-name="Layer 1" xmlns="http://www.w3.org/2000/svg" viewBox="0 0 24 24">
  <g id="root">
    <path d="M22.5,11.93v-.17c0-.19,0-.41,0-.63,0-.66-.06-1.31-.11-1.92a12.68,12.68,0,0,0-.31-2.09,3.23,3.23,0,0,0-2.31-2.3A20.82,20.82,0,0,0,16,4.46l-2.74-.07H10.76L8,4.46a20.82,20.82,0,0,0-3.78.36,3.33,3.33,0,0,0-1.47.84,3.35,3.35,0,0,0-.84,1.46,12.68,12.68,0,0,0-.31,2.09c-.05.61-.09,1.26-.11,1.92,0,.22,0,.44,0,.63v.48c0,.19,0,.41,0,.63,0,.66.06,1.31.11,1.92a12.37,12.37,0,0,0,.31,2.08,3.25,3.25,0,0,0,2.31,2.31A20.82,20.82,0,0,0,8,19.54l2.74.07h2.48L16,19.54a20.82,20.82,0,0,0,3.78-.36,3.25,3.25,0,0,0,2.31-2.31,12.37,12.37,0,0,0,.31-2.08c.05-.61.09-1.26.11-1.92,0-.22,0-.44,0-.63v-.31Zm-1.69.13v.16c0,.19,0,.39,0,.6,0,.63-.05,1.25-.1,1.83a10.9,10.9,0,0,1-.26,1.79,1.58,1.58,0,0,1-1.11,1.11,21.28,21.28,0,0,1-3.42.3c-.85,0-1.77.06-2.69.07H10.78c-.92,0-1.83,0-2.69-.07a21.15,21.15,0,0,1-3.42-.3,1.58,1.58,0,0,1-1.11-1.11,10.9,10.9,0,0,1-.26-1.79c0-.58-.08-1.2-.1-1.83,0-.21,0-.42,0-.6v-.44c0-.19,0-.39,0-.61,0-.62,0-1.24.1-1.82a10.9,10.9,0,0,1,.26-1.79A1.58,1.58,0,0,1,4.67,6.45a21.28,21.28,0,0,1,3.42-.3c.85,0,1.77-.06,2.69-.07h2.44c.92,0,1.83,0,2.69.07a21.15,21.15,0,0,1,3.42.3,1.58,1.58,0,0,1,1.11,1.11,10.9,10.9,0,0,1,.26,1.79c.05.58.08,1.2.1,1.82,0,.22,0,.43,0,.61v.28ZM9.91,15.14,15.35,12,9.91,8.86Z" style="fill: #fff"/>
  </g>
</svg>
