<svg id="Layer_1" data-name="Layer 1" xmlns="http://www.w3.org/2000/svg" viewBox="0 0 24 24">
  <g id="root">
    <path d="M21.75,6a8.15,8.15,0,0,1-2.3.62,4,4,0,0,0,1.76-2.2,8.07,8.07,0,0,1-2.54,1,3.86,3.86,0,0,0-1.33-.93,3.94,3.94,0,0,0-1.59-.33,4,4,0,0,0-4,4,4.53,4.53,0,0,0,.1.91A11.34,11.34,0,0,1,3.61,4.81a4,4,0,0,0,1.24,5.35A4.14,4.14,0,0,1,3,9.65v0a4,4,0,0,0,3.21,3.92,4.23,4.23,0,0,1-1.06.14,6.15,6.15,0,0,1-.75-.06,4,4,0,0,0,3.73,2.77,8,8,0,0,1-5,1.71,7.62,7.62,0,0,1-1-.05,11.27,11.27,0,0,0,6.14,1.79A11.29,11.29,0,0,0,19.76,8.55c0-.18,0-.35,0-.52A8.74,8.74,0,0,0,21.75,6Z" style="fill: currentColor"/>
  </g>
</svg>
