<svg viewBox="0 0 24 24" fill="none" xmlns="http://www.w3.org/2000/svg">
  <g id="root">
    <path fill-rule="evenodd" clip-rule="evenodd" d="M22 12C22 17.5228 17.5229 22 12.0001 22C6.47722 22 2.00004 17.5228 2 12C1.99996 6.47715 6.47708 2 11.9999 2C17.5228 2 22 6.47715 22 12ZM16.8851 10.8634C16.988 10.863 17.0906 10.8577 17.1928 10.8477H17.1946V8.76499C15.5822 8.64706 14.2858 7.39125 14.1168 5.78345H12.3238L12.305 14.5223C12.305 15.5945 11.358 16.4393 10.286 16.4393C9.2141 16.4393 8.34503 15.5703 8.34503 14.4983C8.34503 13.4263 9.2141 12.5573 10.286 12.5573C10.3455 12.5573 10.4031 12.5651 10.4607 12.573C10.4808 12.5758 10.5009 12.5785 10.521 12.5809V10.7069C10.5027 10.7057 10.4844 10.7044 10.4662 10.7031C10.4065 10.699 10.3468 10.6948 10.286 10.6948C8.18563 10.6948 6.48296 12.3974 6.48296 14.4978C6.48296 16.5982 8.1857 18.3009 10.286 18.3009C12.3864 18.3009 14.0891 16.5982 14.0891 14.4978V9.35233C14.393 9.81653 14.8078 10.1977 15.2959 10.4615C15.7841 10.7254 16.3302 10.8635 16.8851 10.8634Z" fill="currentColor"/>
  </g>
</svg>
