<svg id="Layer_1" data-name="Layer 1" xmlns="http://www.w3.org/2000/svg" viewBox="0 0 24 24">
  <g id="root">
    <path d="M19.18,2.62H4.07A1.45,1.45,0,0,0,2.62,4.07V19.18a1.44,1.44,0,0,0,1.45,1.44H19.18a1.43,1.43,0,0,0,1.44-1.44V4.07A1.44,1.44,0,0,0,19.18,2.62ZM8.12,6.56A1.56,1.56,0,1,1,5,6.56,1.52,1.52,0,0,1,5.12,6a1.47,1.47,0,0,1,.34-.51A1.43,1.43,0,0,1,6,5.12,1.57,1.57,0,0,1,6.56,5a1.53,1.53,0,0,1,.6.12,1.57,1.57,0,0,1,.51.34A1.63,1.63,0,0,1,8,6,1.71,1.71,0,0,1,8.12,6.56ZM7.91,9.32H5.21V18h2.7Zm4.38,4.38c0-1.13.22-2.22,1.62-2.22s1.4,1.29,1.4,2.3V18H18V13.24c0-2.34-.5-4.14-3.23-4.14a2.84,2.84,0,0,0-2.55,1.4h0V9.32H9.6V18h2.69Z" style="fill: currentColor;fill-rule: evenodd"/>
  </g>
</svg>
