<svg id="Layer_1" data-name="Layer 1" xmlns="http://www.w3.org/2000/svg" viewBox="0 0 24 24">
  <g id="root">
    <path d="M12,7.19A4.81,4.81,0,1,0,16.81,12,4.81,4.81,0,0,0,12,7.19Zm0,7.93A3.12,3.12,0,1,1,15.12,12,3.12,3.12,0,0,1,12,15.12Zm5-9.24A1.12,1.12,0,1,0,18.13,7,1,1,0,0,0,18,6.57a1.12,1.12,0,0,0-.24-.37A1.31,1.31,0,0,0,17.43,6,1,1,0,0,0,17,5.88ZM21.37,12c0-1.29,0-2.58-.06-3.87A5.6,5.6,0,0,0,19.8,4.2a5.64,5.64,0,0,0-3.93-1.51c-1.29-.07-2.58-.06-3.87-.06s-2.57,0-3.86.06A5.63,5.63,0,0,0,4.21,4.2,5.55,5.55,0,0,0,2.7,8.13c-.08,1.3-.07,2.58-.07,3.87s0,2.58.07,3.87A5.55,5.55,0,0,0,4.21,19.8a5.64,5.64,0,0,0,3.93,1.51c1.29.07,2.57.06,3.86.06s2.58,0,3.87-.06A5.64,5.64,0,0,0,19.8,19.8a5.55,5.55,0,0,0,1.51-3.93C21.38,14.58,21.37,13.29,21.37,12Zm-2.06,5.53a3.24,3.24,0,0,1-1.78,1.78c-1.24.49-4.16.38-5.53.38s-4.3.11-5.53-.38A3,3,0,0,1,5.4,18.6a3,3,0,0,1-.71-1.07c-.49-1.24-.38-4.16-.38-5.53s-.11-4.3.38-5.53A3,3,0,0,1,5.4,5.4a3,3,0,0,1,1.07-.71C7.7,4.2,10.63,4.31,12,4.31s4.3-.11,5.53.38a3,3,0,0,1,1.07.71,3,3,0,0,1,.71,1.07c.49,1.23.38,4.16.38,5.53S19.8,16.29,19.31,17.53Z" style="fill: #fff"/>
  </g>
</svg>
