<svg id="Layer_1" data-name="Layer 1" xmlns="http://www.w3.org/2000/svg" viewBox="0 0 164 164">
  <g id="root">
    <path d="M27.24,109.34,69.66,66.93a4,4,0,0,1,2.5-1.16l29.78-2.45a4,4,0,0,1,4.32,4.31l-2.45,29.79a4,4,0,0,1-1.16,2.5L60.24,142.34a4,4,0,0,1-5.66,0L27.24,115A4,4,0,0,1,27.24,109.34Z" style="fill: #e2f1ff;stroke: #1890ff;stroke-linecap: round;stroke-width: 2px"/>
    <path d="M89.15,79.11l13.46-12.9c5-5,16.7-15.64,13.2-25s-8.28-14.34-14.8-12c-3.92,1.42-9.43,6.5-.15,15.47s25.83-1,33-7.18" style="fill: none;stroke: #1890ff;stroke-linecap: round;stroke-width: 2px"/>
    <circle cx="87" cy="81.54" r="7.84" style="fill: #1890ff"/>
  </g>
</svg>
