<?xml version="1.0" encoding="UTF-8"?>
<svg id="Layer_1" data-name="Layer 1" xmlns="http://www.w3.org/2000/svg" viewBox="0 0 325.16 104.38">
  <g id="root">
    <path d="m37.51,65.75l5.59-18.44h-20.74v-5.57h22.44l5.32-17.67h-27.76v-5.35h29.31L57.33,0H0v65.75h37.51Zm183.85-24.42L209.26,0h-30.99v65.75h19.36V24.54h.14l12,41.21h31.26V0h-19.53v41.33h-.12Zm-62.55,7.58c7.04,0,12.68-5.84,12.68-13.22s-5.29-13.98-12.43-13.98-12.8,6.64-12.8,13.98,5.29,13.22,12.54,13.22M148.47,0h-59.64v18.72h18.82v47.03h30.28c-1.87-1.15-14.72-11.35-14.72-30.39,0-15.82,9.6-31.31,25.26-35.37m-81.08,48.32l-5.32,17.43h31.07l-5-17.43h-20.75Zm10.62-35.72l5.83,21.01h-12.09l6.26-21.01Z" style="fill: #0072bb;"/>
    <path d="m56.53,89.68h2.99c1.68,0,2.93-.8,3.54-3.64.66-3.09-.62-3.34-2.08-3.34h-2.96l-1.49,6.98Zm.16-8.34h4.98c1.51,0,3.95.2,3.06,4.4-.77,3.65-2.31,5.31-5.42,5.31h-3.06l-1.8,8.44h-1.61l3.86-18.14Z" style="fill: #1d1d1b;"/>
    <path d="m70.91,96.84c.39-.63.92-2.91,1.09-3.72.8-3.74.77-5.38-1.72-5.38s-3.21,1.64-4.01,5.38c-.17.81-.61,3.09-.49,3.72.06.3.12,1.69,2.21,1.69s2.73-1.38,2.92-1.69m-6.44-2.34l.64-3.01c.34-1.61,1.08-4.95,5.43-4.95s3.66,3.34,3.32,4.95l-.64,3.01c-.7,3.29-2.24,5.23-5.48,5.23s-3.96-1.93-3.26-5.23" style="fill: #1d1d1b;"/>
    <polygon points="76.17 86.79 77.78 86.79 78.26 97.89 78.3 97.89 83.35 86.79 85.22 86.79 85.67 97.89 85.72 97.89 90.92 86.79 92.43 86.79 86.24 99.48 84.35 99.48 83.87 88.62 83.82 88.62 78.85 99.48 76.96 99.48 76.17 86.79" style="fill: #1d1d1b;"/>
    <path d="m99.86,92.24c.6-2.81.5-4.5-1.91-4.5s-3.22,1.69-3.82,4.5h5.73Zm-5.99,1.21l-.21.98c-.37,1.76-.39,4.09,2,4.09,1.88,0,3.07-1.2,3.41-2.92h1.58c-.83,3.07-2.71,4.12-5.25,4.12-2.19,0-4.18-.88-3.37-4.73l.66-3.11c.78-3.67,2.67-5.36,5.51-5.36,4.37,0,3.7,3.14,2.9,6.91h-7.24Z" style="fill: #1d1d1b;"/>
    <path d="m106.57,88.49h.05c.88-1.2,2.38-1.96,3.91-1.96l-.33,1.53c-2.1-.18-3.78,1.11-4.23,3.24l-1.74,8.17h-1.51l2.7-12.69h1.51l-.36,1.71Z" style="fill: #1d1d1b;"/>
    <path d="m112.77,83.24l.41-1.91h1.86l-.41,1.91h-1.86Zm-3.28,16.23l2.7-12.69h1.51l-2.7,12.69h-1.51Z" style="fill: #1d1d1b;"/>
    <path d="m115.95,99.48h-1.51l2.7-12.69h1.51l-.33,1.56h.05c.95-1.05,2.09-1.81,3.45-1.81,3.14,0,2.97,2.34,2.62,4l-1.9,8.95h-1.51l1.89-8.87c.31-1.48.03-2.87-1.73-2.87-1.36,0-2.94.93-3.54,3.77l-1.7,7.97Z" style="fill: #1d1d1b;"/>
    <path d="m128.46,92.84c-.56,2.64-1.12,5.28,1.62,5.28,1.26,0,2.24-.83,2.59-1.43.59-.98.81-1.56,1.6-5.28.57-2.66-.65-3.67-2.06-3.67-2.61,0-3.35,3.22-3.75,5.1m6.9-6.08h1.48c-.31,1.21-.46,1.84-.61,2.49l-2.27,10.68c-.59,2.79-1.8,4.45-5.42,4.45-3.17,0-3.32-2.24-2.95-3.52h1.51c-.41,1.46.49,2.31,1.9,2.31,2.94,0,3.1-1.58,3.9-5.38h-.05c-.88,1.08-2.18,1.53-3.39,1.53-3.65,0-3.23-3.14-2.63-5.96.62-2.94.66-2.97,1.29-4.32.24-.53,1.54-2.51,4.1-2.51,1.28,0,2.43.65,2.74,1.78l.04.05.34-1.61Z" style="fill: #1d1d1b;"/>
    <path d="m149.57,89.4c2.31,0,3.38-1.58,3.82-3.64.64-3.02-1.01-3.07-2.29-3.07h-3.19l-1.43,6.71h3.09Zm-4.94,8.72h2.56c2.66,0,4.14-.91,4.7-3.57.34-1.61.33-3.8-2.43-3.8h-3.27l-1.57,7.37Zm-1.9,1.36l3.86-18.14h5.05c2.84,0,4.05,1.16,3.37,4.35-.46,2.18-1.14,3.69-3.56,4.32v.05c2.27.5,2.56,2.09,2.08,4.37-.69,3.27-2.63,5.05-5.67,5.05h-5.13Z" style="fill: #1d1d1b;"/>
    <path d="m165.78,86.79l-2.7,12.69h-1.31l.3-1.41h-.05c-1.11,1.08-2.14,1.66-3.55,1.66-2.61,0-2.94-1.91-2.5-3.97l1.91-8.97h1.5l-1.85,8.72c-.08.35-.72,3.02,1.47,3.02,2.04,0,3.17-1.91,3.36-2.79l1.9-8.95h1.51Z" style="fill: #1d1d1b;"/>
    <path d="m169.39,99.73c-2.74,0-3.54-1.33-2.94-4.02h1.53c-.37,1.74-.21,2.89,1.72,2.89,1.46,0,2.34-.83,2.64-2.24.7-3.32-5.18-2.46-4.29-6.66.5-2.34,2.28-3.17,4.49-3.17,2.51,0,2.95,1.74,2.54,3.67h-1.48c.27-1.61.02-2.46-1.69-2.46-1.08,0-2.08.71-2.33,1.84-.67,3.17,5.21,2.31,4.31,6.56-.51,2.39-2.15,3.59-4.51,3.59" style="fill: #1d1d1b;"/>
    <path d="m179.22,83.24l.41-1.91h1.86l-.41,1.91h-1.86Zm-3.28,16.23l2.7-12.69h1.51l-2.7,12.69h-1.51Z" style="fill: #1d1d1b;"/>
    <path d="m182.43,99.48h-1.51l2.7-12.69h1.51l-.33,1.56h.05c.95-1.05,2.09-1.81,3.45-1.81,3.14,0,2.97,2.34,2.62,4l-1.9,8.95h-1.51l1.89-8.87c.31-1.48.03-2.87-1.73-2.87-1.36,0-2.94.93-3.54,3.77l-1.69,7.97Z" style="fill: #1d1d1b;"/>
    <path d="m200.81,92.24c.6-2.81.5-4.5-1.91-4.5s-3.22,1.69-3.82,4.5h5.73Zm-5.99,1.21l-.21.98c-.37,1.76-.39,4.09,2,4.09,1.88,0,3.07-1.2,3.41-2.92h1.58c-.83,3.07-2.71,4.12-5.25,4.12-2.19,0-4.18-.88-3.37-4.73l.66-3.11c.78-3.67,2.67-5.36,5.51-5.36,4.37,0,3.7,3.14,2.9,6.91h-7.24Z" style="fill: #1d1d1b;"/>
    <path d="m206.73,99.73c-2.74,0-3.54-1.33-2.94-4.02h1.53c-.37,1.74-.21,2.89,1.72,2.89,1.46,0,2.34-.83,2.64-2.24.7-3.32-5.18-2.46-4.29-6.66.5-2.34,2.28-3.17,4.49-3.17,2.51,0,2.95,1.74,2.54,3.67h-1.48c.27-1.61.02-2.46-1.69-2.46-1.08,0-2.08.71-2.33,1.84-.67,3.17,5.21,2.31,4.31,6.56-.5,2.39-2.14,3.59-4.51,3.59" style="fill: #1d1d1b;"/>
    <path d="m216.33,99.73c-2.74,0-3.54-1.33-2.94-4.02h1.53c-.37,1.74-.21,2.89,1.72,2.89,1.46,0,2.34-.83,2.64-2.24.7-3.32-5.18-2.46-4.29-6.66.5-2.34,2.28-3.17,4.49-3.17,2.51,0,2.95,1.74,2.54,3.67h-1.48c.27-1.61.02-2.46-1.69-2.46-1.08,0-2.08.71-2.32,1.84-.67,3.17,5.21,2.31,4.31,6.56-.51,2.39-2.15,3.59-4.51,3.59" style="fill: #1d1d1b;"/>
    <polygon points="238.54 81.33 240.7 81.33 240.97 97.24 241.02 97.24 248.27 81.33 249.85 81.33 241.5 99.48 239.38 99.48 239.17 83.34 239.12 83.34 231.95 99.48 229.94 99.48 229.42 81.33 231.13 81.33 231.39 97.37 231.44 97.37 238.54 81.33" style="fill: #1d1d1b;"/>
    <path d="m254.32,96.84c.39-.63.92-2.91,1.09-3.72.8-3.74.76-5.38-1.73-5.38s-3.21,1.64-4.01,5.38c-.17.81-.61,3.09-.49,3.72.06.3.12,1.69,2.21,1.69s2.73-1.38,2.92-1.69m-6.44-2.34l.64-3.01c.34-1.61,1.08-4.95,5.42-4.95s3.66,3.34,3.32,4.95l-.64,3.01c-.7,3.29-2.24,5.23-5.48,5.23s-3.96-1.93-3.26-5.23" style="fill: #1d1d1b;"/>
    <path d="m262.52,88.49h.05c.89-1.2,2.38-1.96,3.91-1.96l-.33,1.53c-2.1-.18-3.78,1.11-4.24,3.24l-1.74,8.17h-1.51l2.7-12.69h1.51l-.36,1.71Z" style="fill: #1d1d1b;"/>
    <polygon points="265.57 99.48 269.43 81.33 270.93 81.33 267.08 99.48 265.57 99.48" style="fill: #1d1d1b;"/>
    <path d="m278.31,94.27l.48-2.26c.16-.75.91-4.27-1.93-4.27s-3.24,2.46-3.87,5.43c-1,4.72,0,5.36,1.63,5.36,1.43,0,3.04-1.16,3.69-4.25m-.69,3.6l-.06.02c-1.04,1.21-2.12,1.84-3.61,1.84-3.67,0-3.1-3.64-2.47-6.61.52-2.44,1.4-6.58,5.29-6.58,1.16,0,2.17.53,2.75,1.51l.04.02,1.43-6.73h1.51l-3.32,15.63c-.27,1.26-.37,2.09-.38,2.51h-1.46l.27-1.61Z" style="fill: #1d1d1b;"/>
    <polygon points="283.17 86.79 284.78 86.79 285.26 97.89 285.31 97.89 290.36 86.79 292.22 86.79 292.67 97.89 292.72 97.89 297.92 86.79 299.43 86.79 293.24 99.48 291.35 99.48 290.87 88.62 290.82 88.62 285.85 99.48 283.97 99.48 283.17 86.79" style="fill: #1d1d1b;"/>
    <path d="m301.89,83.24l.4-1.91h1.86l-.41,1.91h-1.86Zm-3.28,16.23l2.7-12.69h1.51l-2.7,12.69h-1.5Z" style="fill: #1d1d1b;"/>
    <path d="m311.28,94.27l.48-2.26c.16-.75.91-4.27-1.93-4.27s-3.24,2.46-3.87,5.43c-1,4.72,0,5.36,1.63,5.36,1.43,0,3.04-1.16,3.69-4.25m-.69,3.6l-.06.02c-1.04,1.21-2.12,1.84-3.61,1.84-3.67,0-3.1-3.64-2.47-6.61.52-2.44,1.4-6.58,5.29-6.58,1.16,0,2.17.53,2.75,1.51l.04.02,1.43-6.73h1.51l-3.32,15.63c-.27,1.26-.37,2.09-.38,2.51h-1.46l.27-1.61Z" style="fill: #1d1d1b;"/>
    <path d="m323.33,92.24c.6-2.81.5-4.5-1.91-4.5s-3.22,1.69-3.82,4.5h5.73Zm-5.99,1.21l-.21.98c-.38,1.76-.39,4.09,1.99,4.09,1.89,0,3.07-1.2,3.41-2.92h1.58c-.83,3.07-2.71,4.12-5.25,4.12-2.19,0-4.19-.88-3.37-4.73l.66-3.11c.78-3.67,2.67-5.36,5.51-5.36,4.37,0,3.7,3.14,2.9,6.91h-7.24Z" style="fill: #1d1d1b;"/>
  </g>
</svg>