<svg viewBox="0 0 2149 448" fill="none" xmlns="http://www.w3.org/2000/svg">
  <path d="M0 388.563H1349.47C1357.68 388.563 1364.34 395.232 1364.34 403.46V409.474C1364.34 422.604 1374.96 433.252 1388.07 433.252C1401.18 433.252 1411.81 422.607 1411.81 409.474V385.411C1411.81 371.963 1422.69 361.063 1436.11 361.063C1449.53 361.063 1460.42 371.963 1460.42 385.411V422.937C1460.42 436.228 1471.17 447 1484.44 447C1497.7 447 1508.46 436.228 1508.46 422.937V359.057C1508.46 344.661 1520.11 332.988 1534.48 332.988C1548.85 332.988 1560.5 344.661 1560.5 359.057V425.803C1560.5 437.509 1569.97 447 1581.66 447C1593.34 447 1602.82 437.509 1602.82 425.803V420.503C1602.82 410.444 1610.94 402.282 1620.98 402.241C1631.07 402.201 1639.28 410.389 1639.28 420.503V424.657C1639.28 436.996 1649.26 447 1661.58 447C1673.9 447 1683.88 436.996 1683.88 424.657V317.951V213.597C1683.88 201.533 1693.65 191.756 1705.69 191.756C1717.73 191.756 1727.49 201.536 1727.49 213.597V228.007C1727.49 237.817 1735.42 245.767 1745.22 245.767C1755.01 245.767 1762.94 237.817 1762.94 228.007V15.8975C1762.94 7.66911 1769.6 1 1777.82 1H2148.91" stroke="white" stroke-opacity="0.4" stroke-width="2" stroke-miterlimit="10"/>
</svg>
